<svg xmlns="http://www.w3.org/2000/svg" width="481.241" height="468.112" viewBox="0 0 481.241 468.112">
  <g id="Logo" opacity="0.15">
    <path id="Path_90" data-name="Path 90" d="M37.8,17.76l-.156,29.8c-.337,64.68-.9,172.934-.9,177.737a172.451,172.451,0,0,0,.9,17.281l.259,2.231a169.485,169.485,0,0,0,336.724,0l.129-1.021a171.8,171.8,0,0,0,1.027-18.49c0-5.9-.86-169.455-1.064-207.532ZM206.257,398.813A173.32,173.32,0,0,1,33.917,245.259L33.658,243a175.6,175.6,0,0,1-.921-17.709c0-4.815.568-113.073.907-177.753l.175-33.78H378.69l.01,1.993c.18,33.933,1.075,203.522,1.075,209.541a175.455,175.455,0,0,1-1.054,18.953l-.129,1.035A173.313,173.313,0,0,1,206.257,398.813Z" transform="translate(34.419 13.134)" fill="#fff"/>
    <path id="Path_91" data-name="Path 91" d="M249.408,48.78c1.327.136,1.265,1.475,2.027,2.1.507.415.954.751,1.714-.128C251.892,50.088,251.693,47.923,249.408,48.78Zm-62.922,225.3h5.656C189.888,273.3,188.265,272.243,186.486,274.084ZM115.1,64.127c-1.018,1.155-1.909,2.162-3.248,3.684a5.755,5.755,0,0,0,3.938-2.894C115.83,64.856,115.493,64.564,115.1,64.127Zm7.8,250.717c-1.032-.43-1.386-1.812-2.827-1.547.559.977.159,1.415-.7,1.772C120.479,314.836,121.4,316.829,122.9,314.844ZM197.137,99.958v5.329C198.712,103.442,198.575,101.806,197.137,99.958ZM284,180.261a8.75,8.75,0,0,0,1.795,4.389C285.98,182.523,285.855,181,284,180.261Zm-22.346,47.275c2.093-1.419,2.949-3.131,4.873-3.778-.438-.4-.78-.714-1.139-1.046C264.124,224.048,262.6,225.045,261.653,227.535Zm7.866-86.943a10.362,10.362,0,0,0,.058,2.883c.3,1.01-1.5,1.656-.367,2.694,1.094-.662,1.033-1.934,1.743-2.777C270.193,142.59,270.333,141.458,269.519,140.592Zm18.823,3.095c.845,1.87-.394,4.586,2.795,6.039A19.911,19.911,0,0,0,288.342,143.687Zm-24.258,74.037c-.868.286-1.094-.922-2.166-.751a18.913,18.913,0,0,0-1.54,4.519ZM116.016,302.28c-1.03-2.6-3.57-2.866-6.069-4.318C111.564,300.677,114.294,300.769,116.016,302.28Zm21.291-139.773c.665.292.131,1.441,1.074,1.589,1.492-1.3,2.332-2.972,3.7-5.343C139.8,160.1,138.943,161.817,137.307,162.507Zm50.07-74.573c1.676-.643,1.292-1.993,1.3-3.158.021-1.2-.013-1.2-1.3-3.047ZM123.324,164.41c-.69.793-1.9,1.2-1.864,2.563.782.4,1.519.768,2.2,1.113a2.11,2.11,0,0,0,1.419-1.926C124.019,166.158,123.688,165.281,123.324,164.41Zm104.141-39.262c.025-1.183.33-2.26-.125-3.351-1.4-.036-1.876,1.044-2.6,1.8.835.6.459,1.614.877,2.363ZM206.214,316.7c-2.173,1.461-4.216,2.836-6.873,4.621,3.579.075,5.3-1.92,7.263-3.4C206.694,317.848,206.412,317.288,206.214,316.7Zm-12.232-40.926c-.357-.647-.7-.772-1.079-.73-2.863.3-5.677,1.025-8.588.983C191.57,277.289,191.57,277.287,193.981,275.772Zm39.072-163.286c2.934.078,5.877.634,8.622-.86-.72-.94-2.252.331-2.949-1.272-.465-.4,1.135-.593.509-1.222C236.349,108.81,235.558,112.152,233.053,112.486Zm63.9-13.947c.338-1.987-1.615-2.248-1.943-3.512.294-.512,1.384.008,1.3-.993-1.183-1.135-2.369-2.276-3.544-3.4-1.3,1.439.033,3.047.58,4.283C293.963,96.31,295.606,97.253,296.956,98.539ZM229.213,315.648c2.855-1.532,5.422-2.911,7.987-4.293-1.417.077-2.379-1.789-4.072-.593-1.027.728-2.1,1.066-2.3,2.532C230.708,314.124,229.03,313.642,229.213,315.648Zm-135.2-215.8c1.088-.348,1.074-1.522,1.675-2.237.284-.337.259-.9.031-.971-2.176-.66-.754-2.783-1.792-4.177a6.477,6.477,0,0,1-1.01,2.827,25.451,25.451,0,0,0-2.1,4.127c-.044.092.245.342.378.518,1.224.362.821-1.917,2.251-1.311C93.623,99,93.823,99.429,94.015,99.847Zm93.694,183.7c-1.11-.411-2.242-.779-3.323-1.256-.43-.192-.918-.764-1.275-.378-1.052,1.144-2.59.3-3.792,1.142-1.008.705-2.6-.123-4.055.708,2.279.589,4.347-.19,6.4.764C183.585,285.414,185.53,283.329,187.709,283.546ZM91.889,121.658c-2.3,3.106-4.522,5.983-6.6,8.958-.882,1.261-1.759,2.66-1.071,4.383,1.931-1.4,1.928-1.4,2.78-3.62a1.676,1.676,0,0,1,.334-.632c2.271-2.14,2.6-5.443,4.628-7.722C92.226,122.721,92.237,122.371,91.889,121.658ZM197.648,328.125a42.828,42.828,0,0,0,8.931-6.368c-.576-.662-1.01-1.344-1.67-1.016-2.8,1.4-5.554,2.893-8.317,4.358-.442.238-.852.536-1.624,1.021C196.667,326.4,196.855,327.471,197.648,328.125ZM149.432,42.268c-1.317-.654-2.012-.7-2.642-.123-3.5,3.211-7.891,5.1-11.717,7.853-4.032,2.9-8.259,5.524-11.866,8.977-.348.337-1.1.568-.762,1.322,1.3.214,1.633-1.327,2.552-1.333s1.586-.737,2.688-.448c.712.184.131-1.669,1.116-2.279,2.054-1.275,4.007-2.708,6.022-4.041.114-.075.42.139.654.225-.159.309-.317.615-.473.918,1.272.76,2.037-.095,2.855-.876,1.642-1.569,3.161-3.337,5.19-4.389C145.65,46.726,147.264,44.464,149.432,42.268Zm-9.74,16.6c.12.111.351.459.467.423,1.211-.356,2.513-.345,3.523-1.391,4.347-4.505,9.417-8.173,14.236-12.119-.868-1.205-1.807,1.319-2.676-.028.5-1.121,1.58-1.055,2.484-1.352.132-.044.246-.42.213-.615-.092-.529-.426-.406-.71-.159-.263.231-.505.262-.568-.028-.38-1.7-1.152-1.027-2.058-.44-1.436.935-2.538,2.491-4.491,2.493-.167,1.748-2.131.888-2.757,1.884-.643,1.018-1.144,2.129-1.714,3.195-.284.531-.451,1.28-.9,1.553A10.535,10.535,0,0,0,139.692,58.87ZM290.87,186.848c1.344-1.812,1.288-3.6,1.394-5.337.136-2.269-.747-4.652.426-6.774a8.342,8.342,0,0,0,.685-3.542c.211-2.126-.749-4.021-1.09-6.036s-1.154-4.063-.962-6.019a8.734,8.734,0,0,0-.7-3.988c-.586-1.678-1.851-3.058-1.931-5.037-.66.554-.5,1.074-.5,1.547-.033,4.394,1.056,8.657,1.672,12.968.2,1.4-.824,2.68.05,4.055.843,1.325.607,2.7,0,4.185-.887,2.2-1.695,4.525-.3,6.648-.424.657-1.15.332-1.194.662A20.318,20.318,0,0,0,290.87,186.848Zm8.81-51.932c.952-2.235-.257-4.711,1.05-6.882.1-.175.1-.615-.006-.69-1.553-1.035-1.012-2.955-1.845-4.274-1.425-2.254-1.041-4.678-.962-7.541a6.015,6.015,0,0,1,1.547,3.871c.015,1.4.607,2.649,1.62,4.625.578-2.607.991-4.427.073-6.055a16.411,16.411,0,0,1-2.542-8.933,8.336,8.336,0,0,0-.422-1.759c-.267-1.689-1.442-3.019-1.793-4.441.49-1.074,1.419-1.191,2.164-1.831a16.409,16.409,0,0,1-3.993-3.186c-.937.025-1.814-.3-2.5.262-.664,1.18.689,1.87.555,2.808-.171,1.2,1.219,1.672,1.369,2.805a2.09,2.09,0,0,0-1.918,1.241c.933,1,1.864,2,2.995,3.214-1.2.776-.791,1.9-.459,2.911-.451.181-.781.315-.943.381C294.854,119.532,298.836,126.79,299.68,134.916Zm-180.21,30.11c2.641.236,3.278-2.273,4.859-3.334a22.039,22.039,0,0,0-1.428-3.15c3.559-2.613,5.493-6.89,9.684-8.844.882-.409,1.467-1.453,2.187-2.2a40.31,40.31,0,0,1-6.545,1.845,3.448,3.448,0,0,0,.264-.779c.02-1-1.82-1.071-1.2-2.477.111-.25-.779-.375-1.261-.454-1.812-.3-.22-1.405-.451-2.051l-3.759-1.736q-1.286,1.782-2.485,3.448c.52.735,1.583-.228,1.889.81-1.62,1.016-.134,2.727-1.16,4,1.711.008,2.1-1.778,3.409-2.02.487,1.355-1.439,1.806-1.032,2.521.793,1.389-.537,1.525-.977,1.94-.7.657-.587,1.864-1.8,2.207-.557.161.228,1.38-.69,1.945a10.643,10.643,0,0,0-1.942,2.034c1.007,1.082,1.962-.548,2.866.025-.028,1.141-1.066,1.481-1.308,2.315.328.145.657.292,1.219.545A3.061,3.061,0,0,0,119.47,165.025Zm147.868,115.05a7.51,7.51,0,0,1,3.483,1.265c-2.68,1.071-2.757,1.446-.678,3.25.117.43-.144.705-.4.966-1.611,1.655-2.7,3.73-4.358,5.362-.743.73-.685,2.411.025,2.582,2.068.505-.411,1.647.737,2.277a30.773,30.773,0,0,0,9.315-9.582,18.648,18.648,0,0,0-.962-4.2c-.764-2.11-.459-4.287-1.2-6.4a40.169,40.169,0,0,1-2.386-14.271c.025-1.1.006-2.2.006-3.3-.541.38-1.444.34-1.171,1.112.159.438.718.92.334,1.3-2.187,2.173-.685,5.205-1.816,7.626-.1.215.933.023.776.528.38,1.887-1.035,2.918-1.941,4.318,1.749,1.561.7,3.164.046,4.7.841.244,1.753-.382,2.125.724C268.757,278.907,267.8,278.972,267.338,280.076ZM96.208,54.688a33.129,33.129,0,0,1-2.518,2.666c-.826.7-1.984,1.069-2.666,1.864-.568.665-.192,2.235-1.313,2.4-1.62.234-.167,1.9-1.336,2.262-1.1.34.356,1.222-.228,1.681-.668.521-1.417.941-2.107,1.442-.17.123-.242.381-.4.643.573.49,1.522-.159,1.99.609-.7.465-1.575.679-1.948,1.33.943,2.371-1.363,2.764-2.187,3.968.37.217.749.434,1.174.679-1.194.57-2.129,1.294-1.678,2.649a.6.6,0,0,1-.3.854c-1.6.852-1.506,2.5-1.595,3.854a4.161,4.161,0,0,1-1.6,3.159c-1.881,1.569-1.542,4.216-2.9,6.064-.184.25.323,1.007.5,1.505-1.241,1.355-2.752,2.5-2.588,4.708a44.115,44.115,0,0,0,8.29-9.531c.826-1.327,2.3-2.343,2.607-3.937.7-3.579,2.738-6.464,4.672-9.381a4.331,4.331,0,0,0,.345-3.812c-.095-.387-.943-.083-.946-.893l2.424-.275c.376-1.7,2.39-2.243,2.563-3.9-.557-.462-.732.031-1,.159-.943.445-1.333-.3-1.789-.838-.256-.3-.264-.813.045-.979,1.2-.662,1-2.165,2.031-3.033,2.084-1.753,3.932-3.793,6.067-5.9-2.076-.771-3.851-2.034-5.783-.148-.256.248-.239.378.178.5C94.831,55.345,95.142,54.41,96.208,54.688ZM98.632,258.9c2.12,3.506,3.8,6.288,5.491,9.07-.676.43-1.984.726-1.35,1.7.849,1.3.005,2.671.629,3.945.4.81-.768,1.8.64,2.832,1.121.824-.754,1.778-1.177,2.649,1.784.931,1.717,3.037,2.838,4.4,1.16,1.411,2.521,2.855,4.046,3.325,1.717.532,2.388,3.218,4.856,2.108a1.875,1.875,0,0,1-.376-2.575c.693.173.863,1.194,2.026,1.044-.743-2.014-2.741-2.884-3.9-4.844.924-3.27-1.581-5.8-3.161-8.941l1.564.415c.548-1.181-1.581-2.143-.276-3.364.963.557.562,2.106,1.806,2.467a8.064,8.064,0,0,0-1.5-6.2,49.042,49.042,0,0,1-3.59-7.146c-.125-.263.089-.689.156-1.075.281.127.481.213.676.311a1.16,1.16,0,0,1,.3.2c-.217.449.737-.2.214-.263-.465-3.644-2.287-6.766-3.926-9.955-.284-.553-.707-.989-.056-1.54a2.609,2.609,0,0,1,1.152,1.407c.228.843.713.866,1.472.332-.718-1.755-2.034-3.525-2.026-5.287.008-2.7.1-5.4-.014-8.115-.028-.724-.008-1.542.031-2.26.111-2.014-.751-4.041-.173-5.946.846-2.795.245-5.531-.209-8.173-.409-2.377-.317-5.166-2.791-7.025.044,1.926-.493,3.807,1.208,5.251a1.238,1.238,0,0,1,.17,1.357c-1.87.614.014,2.895-1.661,3.613-.693.3-.573.991-.139,1.565.306.4.657.937.15,1.288-1.169.814.3,1.73-.214,2.569-.785,1.273.965,1.611,1.007,2.463.042.887,1.617,1.428.568,2.5-.7-.219-.9-1.146-1.914-1.1v3.135c-.62.422-.849-.532-1.389.01a7.825,7.825,0,0,0,.356,3.525c.445,1.165,1.82,1.741,1.8,3.122-1.711.015-.888,1.49-1.258,2.225-1.016,2.012,1.394,2.573,1.959,3.976-.351.779-.156,1.762-.451,2.452-.54,1.263.743,2.492.365,3.016-.785,1.083.654,2-.008,2.58-1.3,1.137.359,2.016.078,2.978C101.618,259.7,100.588,260,98.632,258.9Zm83.033-35.384c-.847.8-.073,1.951-.647,2.653-1.912-.044-.7-2.162-1.816-2.715a2.238,2.238,0,0,0-2.024,1.53c-.587,2.2-2.279,4.055-1.956,6.562.117.927.5,2.546-.267,2.778-1.82.547-.72,2.315-1.914,3.508-.056-1.753-.2-2.972.417-4.324.321-.718,1.135-2.246-.733-2.663-.449-1.668-1.922-3.158-.912-5.078.676-1.281.518-2.527.083-4.116-3.229,1.82-4.575,4.759-5.986,7.689-.91-.927.1-2.15-.824-2.876-.866-.054-1.553-.167-1.972,1.039-.365,1.044-1.866-.008-2.661.687.157.561.879,1,.409,1.651-.367.5-.751-.532-1.121-.1-.3.338-.173,1-.768,1.135-3.936.912-4.671,4.16-5.333,7.4a6.254,6.254,0,0,0,.05,2.588c.157.672.77,1.828,1.058,1.791,1.812-.227,2.582,1.607,4.333,1.816,3.231.38,6.407,1.286,9.7,1.377a4.02,4.02,0,0,1,2.129.436c3.085,1.843,6.562,1.252,9.759.849,3.473-.438,6.9-1.292,10.031-1.294,2.367-.5,2.191-2.319,2.354-3.648a56.13,56.13,0,0,0,.069-6.6c-.952-.027-.342,1.165-1.3,1.023-.5-.741.263-1.87-.584-2.588-.4.772-.584,1.649-1.582,1.972-.28-.326-.58-.674-.845-.977.428-.743,1.4-1.066,1.292-1.88a9.907,9.907,0,0,0-.927-3.456c-.993-1.751-2.634-.948-4.287-.589.376-1.782-.553-3.218-.973-4.819-.724.315-.968,1.194-1.8,1.094C181.962,224.722,181.82,224.14,181.665,223.516Zm-11.6,90.375c1.739-.415,2.914,1.1,4.654.764,1.461-.284,2.734.572,3.974,1.361-3.022-.363-6.007-.964-9.158-.495-.893,1.154-2.348,1.92-3.072,3.506.05-1.828-.877-3.308-1.21-5-1.423.589-1.027,2.452-2.517,2.69a1.548,1.548,0,0,1-.006-1.759c1.311-1.835,1.242-3.89,1.292-6.009.069-2.937-.209-5.863.576-8.822a7.017,7.017,0,0,0-.559-5.731c.463-1.388,1.964-2.5,1.169-4.274-.309.186-.526.426-.735.419a.455.455,0,0,1-.376-.73c.626-.758,2.089-1.083.973-2.853-2.242,1.269-2.6-1.793-5.272-1.82,2.166-.62,3.581-.129,4.9-.751-1.089-.891-2.5.169-3.542-.674a2.259,2.259,0,0,1,1.263-1.236c.424-.194,1.127.336,1.323-.495-1.544-.467-3.22.077-4.7-.989h3.273a2.948,2.948,0,0,0-3.279-2.745c-2.07.086-4.345.653-5.429,2.859.261,1.1,1.438,1.135,2,1.847-.419.509-.808.975-1.127,1.361a16.834,16.834,0,0,0,1.012,2c.463.666,0,1.083-.161,1.655-.223.776,1.434.334,1.029,1.755-.442.776-2.421-.192-2.613,1.488,1.286.651,2.863-.278,4.166.634-.564.71-2.012.094-1.954.808.157,1.9-1.494,1.753-2.513,2.313a7.9,7.9,0,0,0,3.012,2.087c-1.035,1.659-3.231,0-4.231,1.567.708.614,2.726,1.016,1.893,2.043-1.127,1.394.6,2.315.253,2.918-1.369.2-2.34.336-3.423.495-1.279-.73-1.987-2.6-4.078-2.884,1.077,1.987,3.124,2.834,3.732,4.713-.866,1.06-1.386.083-2-.063-.943,1.738.422,2.613,1.49,3.291,2.513,1.6,5.166,2.978,8.154,4.673-4.473.317-6.831-3.439-10.271-4.35-1.06,1.471,1.044,1.751.847,2.962-1.7-.048-2.388-2.15-4.412-1.8,1.9,2.381,4.343,3.769,6.764,5.205-.424.25-.816.474-1.236.72.933.509,1.81.991,3.129,1.711a3.618,3.618,0,0,1-2.886-.426c-.67-.432-1.9.653-1.48,1.16,1.306,1.578-1.016,1.928-.948,3.033a15.977,15.977,0,0,1,2.684,2.413c.7.724-.048,1.686.885,2.2a17.77,17.77,0,0,1,2.29,1.843c.186.15.461.2.626.369,1.05,1.081,2.081,2.181,3.456,3.632-2.062-.388-3.02-1.6-4.256-2.154-.962.781-.326,2.081-1.213,2.651,1.91,1.344,4.293,1.528,6.393,2.5a4.792,4.792,0,0,0,2.949.054c4.936-1.236,9.935-2.135,14.941-3a4.173,4.173,0,0,0,3.093-1.795c-.937-.979-1.54.776-2.225.351-2.413-1.5-4.654.4-7.029.276-2-.111-2.024.342-3.811-.977,3.813,1.254,6.677-1.739,10.2-1.81-.119-.5-.1-.812-.242-.933-.461-.392-.908-.146-1.309.169a.911.911,0,0,1-1.313.019c.286-.885,1.208-1.142,1.935-1.528-.868-.851-2.058.234-2.621-1.1,1.432.152,2.557-.691,3.842-1.018,1.2-.307,1.6-1.4.62-2.536a6.708,6.708,0,0,1,1.958-.941,2.678,2.678,0,0,0,2.275-1.338c-.584-.234-1.586-.15-1.329-1.361.659-.749,1.837-.1,2.615-.66a.628.628,0,0,0,.079-.958c-.73.156-1.72,1.323-2.024-.589,1.309-.718,3.227-.119,4.187-1.795-1.461-.29-2.853.334-4.155-.465,1.284-.641,2.924-.509,3.663-1.905-.3-1.261-1.7-.171-2.1-1.29a18.1,18.1,0,0,0,5.777-2.891c-1.645-.993-3.312,1.726-4.934.013,1.553-.827,3.615-.605,5.295-2.617-1.985.367-3.571,1.885-4.606-.528l4.3-.388a6.529,6.529,0,0,0-2.69-2.315c.063-1.185,2.45-.678,1.4-2.373,1.075-.522,2.173-1.014,2.613-2.383-3.174-.854-6.234,1.722-9.4.319a1.993,1.993,0,0,1,2.035-1.242c1.369.035,2.74-.01,4.109-.008,1.194,0,1.716-.71,2.027-1.968a14.939,14.939,0,0,0-6.785.407c2.227-1.945,4.521-2.3,5.873-3.982-2.229-.507-2.229-.507-3.544-2.035,2.018.486,3.435-.618,5.251-1.021-.887-.217-1.578-.384-2.325-.568.728-.755.6-1.311-.407-1.912-1.793,2.079-4.548.962-7.013,1.645.9.968,2.139-.115,2.82.941-1.35.776-2.955-.169-4.3.672,1.367.8,2.976-.132,4.4.726a16.536,16.536,0,0,1-5.4,1.352c.781.417,1.2.641,1.628.872-.793.877-1.962.081-2.776.7.528,1.066.929,2.248,2.555,1.939.877-.167,1.281.538,1.632,1.213-2.4-.075-7.724.428-7.841.689l.81,1.676c.829-.468,1.647-1.1,2.623-.2a2.683,2.683,0,0,0-1.035,3.177c.566,1.407-1.052.687-.931,1.388,1.344.451,2.7.9,4.544,1.526-2.34.6-4.247.05-6.5.476,1.784.968,3.8-.309,4.631,1.928-1.933,1.154-5.652-.655-5.877,3.308,2.281,1.561,4.9,1.119,7.322,1.8a33.77,33.77,0,0,1-5.9.282C170.537,310.927,169.963,311.764,170.061,313.891ZM290.4,128.418l.033.034c.127-1.289-.157-2.93-1.075-3.334-1.532-.676-1.263-2.051-1.707-3.022a11.621,11.621,0,0,1-1.15-5.329c-.66,1.762-1.48.242-2,.857.741,3.273,2.665,6.334,1.9,10.366-.9-1.6.267-3.971-2.381-3.9.618,3.175,2.429,5.969,3.039,9.052a35.107,35.107,0,0,0,1.855,5.452c.7,1.9,1.058,3.94,2.527,5.574.645.715,1.624,1.848,1.14,2.936-.63,1.419.165,2.491.426,3.682.267,1.222.747,2.4,1.1,3.487-1,.6-1.377-.111-2.12-.362-.033,1.255-.232,2.318.73,3.442,1.089,1.272,1.519,3,2.277,4.489.852,1.684-.4,3.484.657,5.045a.846.846,0,0,1-.038.721c-1.306,2.3-.5,4.683-.538,7.3.987-1.013,2.041-1.517,2.037-2.883-.017-2.822,1.371-5.365,1.757-8.128a6.493,6.493,0,0,0,.067-1.976c-.445-3.362-2.793-6.531-1.131-10.129.142-.306.175-.913-.015-1.082-1.171-1.072-.148-1.993.09-2.989.68-2.852,1.912-5.7.075-8.6-.232-.365-.1-.977-.081-1.472.144-4.7-2.513-8.574-3.713-12.912-1.922,3.553,1.336,6.818.572,10.477-1.269-1.7-.858-3.776-2.029-5.259-.271-.006-.541-.011-.814-.014C290.862,129.957,291.44,128.382,290.4,128.418ZM250.773,289.981c1.6-2.467,4.157-4.082,5.877-6.42-.5-.555-.9-.993-1.386-1.528a16.15,16.15,0,0,0,4.291-3.6c-.53-.551-1.478-.726-1.549-1.7-1.11.6-1.695.125-2.008-1.087.461-.609,1.43-1.3,1.407-1.951-.094-2.379,1.569-3.742,2.7-5.42.186-.28.244-.434.015-.584-.526-.34-1.261.125-1.768-.5,1.885-3.022,3.784-6.065,5.725-9.177-1.77-1.183-.23-3.045-.71-4.475-1.24-.407-1.916.9-2.928.553-.267-2.649,1.739-4.158,3.254-6.067-2.283-3.208.419-6.288-.18-9.336.852-.44,1.826-.47,1.259-1.586-.591-.073-.91.808-1.588.449.553-1.242-1.127-2.323-.1-3.821.557-.81.1-2.317.1-4.387l-2.544,3.492c.29.561,1.411.077,1.292,1.085-.276,1.369-2.058,1.766-2.15,3.239.451.743,1.058-.741,1.526.351-.626,1.01-1.3,2.137-2.018,3.235-.184.282-.2.413.157.526.612.756,1.133-1.238,1.912.2-.958,1.048-1.985,2.179-2.989,3.281.248.33.568.612.52.714-1.54,3.237-2.976,6.547-5.769,8.912,1.315,2.448,1.315,2.448,1.123,4.153,1.135-.077,1.632-1.052,2.315-1.716a2.306,2.306,0,0,1,1.695-.53c.551.117,1.3-.211,1.484.7.336,1.724-1.726,2.214-1.709,3.742-.962-.359-1.211-1.555-2.469-1.292a12.166,12.166,0,0,0-2.3,4.153c1.206.847,1.386.977,1.012,1.488-.866,1.185-.294,1.778.676,2.34.215-.436.426-.864.645-1.3a1.405,1.405,0,0,1,.3,1.736,9.673,9.673,0,0,1-2.3,3.314,1.464,1.464,0,0,0-.223,2.2c.507-.507.365-1.7,1.588-1.179-.01,1.279-1.029,2.025-1.578,3.033a17.362,17.362,0,0,1-2.525,3.149c-.716.808-1.926,1.734-1.878,2.544.1,1.693-1.933,1.8-1.876,3.2q.892,1.778,1.747,3.481c.572-.192.973-.9,1.853-.269-.923.937-1.805,1.947-1.43,3.408-1.6.426-1.455,2.075-2.185,3.11,1.11,1.947-.77,2.924-1.686,3.535-2.312,1.547-3.894,3.721-5.9,5.449.292.451.484.753.62.968-1.58,1.16-3.156,2.287-4.694,3.46-.449.34-.474.816.125,1.4,2.121-.605,3.892-2.068,5.861-3.135a.772.772,0,0,0,.326-.591c-.1-2,1.883-2.2,2.924-2.811a4.564,4.564,0,0,0,2.02-1.676c1.48-2.669,4.03-4.508,5.608-7.134a5.8,5.8,0,0,1,2.381-2.3c2.855-1.244,2.939-3.494,2.7-6.378-1.617,1.58-3,2.93-4.377,4.283C252.378,289.522,251.766,290.148,250.773,289.981ZM217.2,265.32a4.3,4.3,0,0,1-2.454-.455c-1.983-1.344-4.191-1.181-7.067-.789a57.036,57.036,0,0,0,6.979,2.563c1.213.275,2.826.822,3.936-.6h5.092c-4.066,1.29-8.052,2.613-12.324,2.58,1.127.643,2.805.764,3.222,1.553.891,1.678,1.728,2.125,3.323,1.165,2.644,1.294,5.333.749,8.188-.142-.355.768-.549,1.183-.739,1.594-1.613-.008-3.231-.077-4.842,0-1.588.067-3.25-.38-4.752.313-1.617.741-2.991-.829-4.531-.309-1.315.447-2.456-.933-3.959-.444a3.692,3.692,0,0,0,4.093,2.59c2.98-.194,5.681,1.233,8.62,1.15-2.377.459-4.738.835-7.319-.125.223.91-.336,1.686-.541,2.571.532.121,1.682,1.288,3.118,3.287a5.483,5.483,0,0,0-3.377-.791c-1.085.219-1.739-.87-2.788-.745-.979.117-2.014-.182-3.225.392,2.179.493,4.039.914,5.971,1.348-1.062,1.115-2.5,0-3.527.816.672.488,1.565.66,1.964,1.484a5.119,5.119,0,0,1-2.807.958c-.209,1.1,1.119.756,1.361,1.438.326.835-1.208,1.38-.363,2.292.589.173,1.167.34,2,.582-.689.342-1.008.5-1.325.657,1.567,1.44,1.709,1.574.534,2.993-.653.785-.357,1.106-.086,1.795.236.6.328,1.509-.764,1.722-.4.077-.8.5-.578.768,1.1,1.371-1.4,2.611-.086,3.934-.922,1.2-1.841,2.4-2.9,3.79-.1,1.05,1.557.806,2.058,1.847-1.82.933-3.373,2.041-3.569,4.471.493.029.96.061,1.428.088q-1.806,2.461-3.617,4.917c.461.33.67,1.037,1.313,1.029,2.751-1.647,5.426-3.245,8.106-4.853-.177-.294-.419-.7-.73-1.225.764-.843,1.991-1.578,2.116-2.467.225-1.649,1.269-2.018,2.411-2.242.177-1.012-.457-1.288-.891-1.695-.672.213-1.24.743-2.008.63a18.151,18.151,0,0,1,5-5.019c-1.313-.849-1.981.179-2.805.912-.553.488-.971,1.638-1.979.764.87-1.908,3.033-2.421,4.214-3.892.079-2.162-.449-4.4,1.115-6.094,2.2-2.381,3.965-5.095,6.042-7.536,2.947-3.475,4.725-7.576,7.077-11.366.113-.182.027-.488.035-.735.3-.05.66-.079.561-.5-.025-.119-.351-.171-.539-.255a2.159,2.159,0,0,1,.522-1.7c.618-.73,1.643-1.724,1.5-2.392-.434-1.985.918-3.287,1.3-4.917.507-2.123.691-4.324,1.052-6.745-1.638,1.119-3.112,1.713-4.45,2.584a10.251,10.251,0,0,1-4.942,1.878,19.79,19.79,0,0,0-4.942,1.077c-1.38.417-2.69,1.626-4.039,2.333C216.864,264.677,217.033,265,217.2,265.32ZM274.7,73.1c-.294-2.889-1.415-5.554-2.183-8.321-.457-1.65-.9-2.922-2.813-3.142-.292-.033-.557-.465-.791-.749-.334-.4.824-.754.1-1.1a1.315,1.315,0,0,0-1.672.259c.019.242-.056.6.069.7,3.35,2.76,3.337,7.31,5.608,10.644.05.072-.451.654.033,1.13a1.939,1.939,0,0,0,1.672.548c.417.84-.887,1.475-.328,2.276,1.3,1.853,1.248,4.352,2.943,6.005.555.543.058,1.046-.027,1.622-.453,2.933-.2,2.88,1.052,6.559.582,1.706,1.689,3.206,1.9,5.059.046.414.589.813.311,1.324-1.225,2.251.436,4.071.866,6.078.2.946.889,1.675.835,2.774a19.993,19.993,0,0,0,3.339,11.615c.776-1.831-.4-3.4-.384-5.02a27.186,27.186,0,0,0-1.158-7.909c-.77-2.546-1.117-5.179-1.709-7.722-.511-2.176-1.352-4.475-.979-6.854a4.094,4.094,0,0,0-.4-1.753C279.575,82.143,276.957,77.7,274.7,73.1ZM83.983,250.305c.412.207.821.409,1.606.8-.337-1.609.178-3.051-.426-4.437-.729-.031-1.366-.3-1.9.463V249.6c-.451.083-1.06-.2-1.316.336a1.608,1.608,0,0,0,.1,1.7c.565.756,1.491,1.323,1.222,2.488L82,253.517c-.362,2.181,1.18,3.807,1.592,5.742.448,2.1,1.817,3.782,2.727,5.7-.932.317-1.441-.975-2.093-.186.086.778,1.069.981.991,1.822-.334.15-.662.3-1.021.455.673,1.315,2.093,2.3,2,3.988-1.021.248-1.172-1.238-2.338-.8.815,1.6,2.137,2.8,2.571,4.471,2.727,1.569,2.557,4.621,3.6,7.046l-.033.038c-2.168.217-2.535-2.383-4.344-2.805.935,2.108.935,2.108,3.592,4.245-.006.751-.008,1.5-.014,2.252.053,1.069-.415,2.494,1.542,2.262-.2.4-.4.8-.707,1.438,3.746-.119,6.286,1.97,8.418,4.379.57-.288.888-.449,1.2-.607l.821.025c.8,2.644,2.357,3.728,3.615,2.519.12-.793-1.355-1.812.373-2.386,1.464.207,2.3,1.939,4,2,.234-2.262-2.88-2.127-2.549-3.2.654-2.1-1.912-2-1.778-3.46a1.86,1.86,0,0,1,1.928.818c.866,1.261,2.043,1.148,3.654.966-.974-1.377-1.976-3.005-2.989-2.936-2.232.154-3.095-1.4-4.377-2.475a2.482,2.482,0,0,0-1.948-.839c-.106-.463-.064-1.056-.337-1.377a48.775,48.775,0,0,1-6.668-9.828c-1.767-3.542-4.249-6.7-5.482-10.531-.69-2.154-1.205-4.471-3.184-5.982-.122-.094-.028-.474-.033-.72l1.327.589c.348-2.037.412-3.869-1.962-4.786C83.95,251.3,84.02,250.673,83.983,250.305ZM125.861,49.142c2.569-1.127,5.357-1.954,6.851-4.711-.529-.481-.879-.8-1.352-1.236-1.65,2.215-4.118,3.565-5.468,5.977-2.644.415-4.486,2.176-6.417,3.8-.267.225-.326.373-.159.5.442.406.7.868,1.645.852C122.469,52.726,124.167,50.934,125.861,49.142ZM289.68,79.861c-.561.02-1.265-.22-1.438.618-.117.573-.232,1.238.518,1.506a2.4,2.4,0,0,1,1.751,1.608c-.221.083-.626.162-.63.256-.06,1.185,1.774,4.107,2.859,4.1,1.4-.014,2.39.643,3.934,2.059a6.267,6.267,0,0,0-3.358-4.188,2.379,2.379,0,0,1-1.457-1.525c1.1-.214.935-1.083.676-1.7-.28-.665-.789-1.227-.645-2.026-.6-1.686-.6-1.686-2.8-2.577C288.578,78.828,289.787,79.124,289.68,79.861ZM105.672,76.126c1.558-1.3,3.554-2.179,4.316-4.233-.6-1.108-1.3-.66-2-.275-.3-.022-.607-.047-.913-.07-.225-1.667,1.659-2.16,2.1-3.454-.47-.2-.8-.342-1.138-.484,1.269-2.009,3.261-3.192,5.162-4.7-.4-.4-.662-.651-.793-.782-3.768,2.357-5.708,6.267-8.863,8.991-1.475,1.269-1.8,3.529-3.857,4.227a2.446,2.446,0,0,1,.515-1.678c1.021-1.575,2.663-2.861,2.513-5.042a1.5,1.5,0,0,1,.5-.915c1.695-1.75,2.813-3.988,4.714-5.568.451-.376.966-.813.487-1.57-1.03.2-1.428,1.775-2.761,1.319.1-.829.815-1.211,1.319-1.728,1.391-1.428,2.635-3.134,4.3-4.113,1.4-.824-.083-2.465,1.308-2.886,1.714-.518,2.46-2.363,4.188-2.9a1.506,1.506,0,0,0,.874-1.853c.526-1.241,2.794-1.439,2.112-3.462-.882-.042-1.1,1.066-1.714,1.055-2.223-.033-2.7,1.595-3.281,3.175-1.174.565-2.591,1.269-2.911,2.377a3.5,3.5,0,0,1-1.87,2.521c-1.341.428-.462,1.711-1.3,2.209-1.055.626-2.766,1-2.544,2.482.239,1.6-1.831,1.648-1.711,3.028.531.022.9.039,1.269.056-.459,1.272-.955,2.429-2.655,2.452-.537.008-1.069.526-1.6.812.723,1.041-.2,1.233-.813,1.606a.347.347,0,0,0-.095.326c1.514,2.279-.6,3.406-1.481,4.987-.771,1.391-1.692,2.833-1.361,4.6.921-.058,1.021-1.372,2.015-1.311.011,2.616-2.449,3.8-3.387,5.844-.779-.456-.022-1.458-.6-1.9-3.746,2.287-6.32,5.616-8.568,9.289,1.62-.006.465,2.081,1.809,2.187-.206.462-1.024.061-.952.749.242.428,1.035.061,1,.8L87.81,93.705c.362.317.715.626,1.422,1.241.673-2.413,1.258-4.65,2.849-6.353,1.542-1.656,1.639-4.255,3.657-5.808.028,1.391,1.158.982,1.7,1.4,1.361,1.049,2.015,1.2,2.524.056,1.163-2.624,3.726-4.611,3.623-7.819,0-.114.376-.237.576-.354C104.682,75.656,105.113,77.554,105.672,76.126ZM198.4,88.065l.046-.039a9.989,9.989,0,0,0,3.565-6.5c.551-3.172,2.826-5.148,4.293-7.672.161-.278.461-.971,1.05-.389.15,1.514-1.8,2.385-1.231,4.052.38-.242.68-.434.991-.634,1.035,1.177-1.16,1.917-.4,3.033a3.821,3.821,0,0,0,.392.428c.332-.518.34-1.672,1.4-.648.7-.8.075-2.468,1.707-2.674.641,2.162-2.957,4.208-.217,6.453,2.358-1.825,2.358-1.825,4.128-.019-.213,1.277-1.511,2.187-1.434,3.865,1.528-.96,1.693-2.7,3.008-3.462.3-.17.438-.245.591.114.549.874-1.11,1.352-.465,2.3.941.946,1.649-1.152,2.684-.164-.4.537-.808,1.083-1.267,1.692,1.768,1.6,3.2-.7,4.811-.376,1.006.718,1.375,1.575.516,2.61.411.309.724.161,1.083.028a22.075,22.075,0,0,1,3.753-1.255c1.409-.25.131.952.827,1.564h9.68a8.205,8.205,0,0,1-4.264.665c-1.651-.156-2.928.771-4.423,1.024.9,1.77,2.459,1.11,3.732,1.169a7.679,7.679,0,0,0,3.644-.3c1.482-.648,1.532-.543,3.473.156-.125.211-.255.42-.38.632,2.363.751,5,.682,7.852,2.652-3.857-.187-6.618-1.539-9.559-2.029-3.285-.548-6.27-.445-8.737,2.171-.762.81-1.682,1.472-2.788,2.421,1.912.66,3.364-.189,4.884.253,1.492.434,3.212.081,4.832.075,1.586,0,3.17,0,4.756,0,0,.242.01.482.017.727H231.34c.6,1.211,1.613.365,2.185,1.177-1.515,1.216-1.536,3.57-3.671,4.377.966.9,2.164-.131,2.855.821-.161,1.018-1.6.74-1.747,1.759,2.031.7,3.341-2.2,5.439-1.146-.008.737-1.165.225-1.044.935,1.44.863,2.613-.315,3.932-.4.526.732.991,1.375,1.417,1.962a5.07,5.07,0,0,1,1.409-.5c1.59-.058,3.185-.022,4.919-.022-.952,2.4-2.98,1.127-4.3,1.8.121.537.689,1.138.885,1.021,2.555-1.5,4.231.782,6.324,1.394-2.694.161-5.18,1.2-7.935,1.169-2.15-.02-4.249,1.124-6.33,2.6,4.648.367,8.081,2.93,12.17,4.708-.351-1.185.417-1.522.989-2.04.568.081,1.064,1.144,1.766.206-1.252-1.581-3.093-2.861-2.78-5.307,4,.581,6.257,3.317,7.6,6.8a11.812,11.812,0,0,0,1.693,3.225c1.7,2.084,1.935,4.642,2.586,7.071.021.075-.28.239-.332.281-.476-.437-.925-.846-1.922-1.762.253,2.338.43,3.954.6,5.571-1.167-1.87-2.991-3.014-4.218-5.212V133.5c-1.273,2.736-4.13,2.947-4.948,5.421-.482-.968-.852-1.712-1.186-2.38a18.276,18.276,0,0,1,1.643-2.582A18.915,18.915,0,0,1,251.871,132c-1.044-.579-2.062-.821-2.456-1.742.409-.462.824-.927,1.38-1.556-1.565-.253-.227-1.817-1.248-2.36a18.2,18.2,0,0,1-4.174-2.237c-2.893-2.585-6.551-2.944-10.026-3.793a3.484,3.484,0,0,0-3.59,1.43c-1.883,2.557-2.079,7.163,2.248,8.794a16.631,16.631,0,0,0,2.085.6,17.959,17.959,0,0,0,3.536.234c1.486-.821,1.567-1.912,1.951-2.733-.945-1.316-2.194-.957-3.229-.871a7.031,7.031,0,0,1-6.23-2.235c-.411-1.809,1.739-2.3,1.711-3.854,1.108,0,1.979-.006,2.849,0,3.853.025,4.116.231,5.257,4.079.111.376.286.406.457.111.142-.328.284-.654.422-.977.66.1.5,1.1.682,1.027,1.638-.7,1.6.568,1.233,1.266-.622,1.185-.956,2.215-.442,3.039,1.97,1.528,2.429-1.644,4.533-.668a13.073,13.073,0,0,0-2.851,3.963c-2.707.557-4.644,3.064-7.593,3.014-.407-.523-.363-1.4-1.442-1.344-1.48.078-3.172.373-4.418-.2-3.062-1.414-6.449-2.571-8.01-6.061a3.538,3.538,0,0,0-1.329-1.238c-1.943-1.369-1.922-1.686-1.117-3.921.3-.838,1.378-1.508.8-2.641-2.889,1.055-4.168,1.915-3.93,2.63.493.239,1.311.142,1.115,1.469-.964.916-2.383,1.965-2.6,3.465.618,1.714,2.016,1.915,3.373,2.185l-.5.829c2.21,1.806,4.744,3.172,7.086,4.792a18.587,18.587,0,0,0,10.652,3.134,5.732,5.732,0,0,1,4.667,1.589h-9.74a13.149,13.149,0,0,1,3.412,1.884c-.474.732-1.482-.086-1.893.748.511.557,1.513-.147,1.893.724-1.665,1.263-4.254-.86-5.631,1.389,1.377,1.6,3.494.768,5.381,1.731-1.442,1.683-3.256.473-4.556,1.185-.278.521-.276,1.2-.86,1.558.407.546.816,1.085,1.242,1.653-1.092.757-2.943-.384-3.427,1.611.607.448,1.223.9,1.716,1.266-.3,1.016-1.465-.173-1.695.785.019.412.647.59.079,1.063-1,.2-1.828-1.274-3.156-.356-.509.765.18,1.987-.67,2.961a2.819,2.819,0,0,0-.077,2.852c1.073,2.031.311,4.352,1.315,6.372a2.168,2.168,0,0,1-.493,2.424c-.845-3.846-1.724-7.463-2.406-11.12a6.758,6.758,0,0,0-1.021-3.047,29.344,29.344,0,0,1-2.761-5.21c-.927-2.081-3.1-2.719-4.531-4.191-.259-.267-.655-.568-.668-.868-.075-1.525-1.766-.454-2.162-1.386.559-1.614.434-2.123-.756-2.532a40.218,40.218,0,0,0-4.846-1.48c-.9-.184-1.348-.406-1.271-1.355.044-.59-.616-.7-.8-1.007-.751-1.233-2.486-1.433-2.93-2.919-.042-.618.261-1.405-.76-1.539a5.709,5.709,0,0,1,.069-1.108c.227-.907,1.4,1.069,1.469-.462.056-1.272,1.3.626,1.43-.84-1.135-1.316-1.329-3.309-2.162-5.053,1.451-1.812-.687-3.348-.134-4.889-.762-.551-1.511-.03-2.064-.79.718-2.248.81-4.608-.945-6.576-.8-.9-.455-1.684-.15-2.68h-3.627c-2.187-2.226-.92-5.081-1.622-7.4-.77-.153-1.451.075-1.713-.3-.584-1.519.134-2.933-.605-4.244a34.423,34.423,0,0,0-1.791,5.549,42,42,0,0,0-.071,6.239c-1.144-4.054-1.144-4.054-2.738-6.345-.676.991.23,2.34-.839,3.492-.417-1.286.094-2.56-.549-3.765-.87,3.54-1.693,6.89-2.49,10.154.526.406,1.152.306,1.261.849-.046,2.2-2.5,3.15-2.9,5.156,1.718.7,2.05-1.661,3.9-.846-2.567,1.956-3.838,5.2-7.463,5.212-.409,1.266,1,.913,1.148,1.611-.852.523-2.3.2-2.429,1.745-1.035-1.55-1.035-1.55-2.534-.289.426.217.831.42,1.382.7-1.674,2.321-4.621,2.7-6.489,4.625.05.136.169.451.29.765-2-.292-2.342,1.792-3.571,2.624a57.039,57.039,0,0,0-9.684,8.1.668.668,0,0,0-.7.615.872.872,0,0,1-.845.9c-2.872,2.037-4.308,5.276-6.426,7.928-1.233,1.541-2.982,2.688-3.821,4.452-1.485,3.133-3.775,5.632-5.99,8.2.929.879.534,1.494-.125,2.251-.359.415-1.622.047-1.132.91.754,1.327-.042,1.945-.893,2.329-1.439.643-2.176,1.912-3.05,2.652-.351,1.041.813,1.206.468,2.118-3.1,2.006-4.617,5.445-5.685,8.8a27.4,27.4,0,0,1-3.122,6.879,9.193,9.193,0,0,0-1.408,3.677c-.367,2.527-.459,5.1-.746,7.66-.423,3.767.05,7.6-.768,11.393-.387,1.782-.056,3.721-.07,5.589-.014,1.993.451,4.176-.214,5.927-.754,1.979.359,3.523.228,5.3a11.7,11.7,0,0,0,5.065,10.467c2.424,1.816,4.246,4.5,7.33,5.447.37.115.264.933.824,1.018,2.786.935,5.282-.937,7.859-.645,1.731-2.367,3.442-4.535,3.611-7.522.04-.693,1.027-1.327,1.584-1.989.536-.647,1.534-1.075,1.311-2.1-.159-.726.835-1.021.378-1.951-.438-.9,1.173-.376,1.352-1.154.081-.342.518-.839.424-.95-1.137-1.327.409-1.807.737-2.688.584-1.574,1.812-2.874,1.718-4.631,1.229-.092,2.248-.121,2.7-1.263-.215-.582-1.327-.052-1.261-1.021a2.063,2.063,0,0,1,.211-.647c1.6-2.146,4.79-2.895,5.3-6.013,2.346-1.323,4.132-3.394,6.5-4.727a18.872,18.872,0,0,0,5.447-4.364,1.853,1.853,0,0,0,.217-.566c-.676-.342-.369-1.171-.881-1.64-.363.326-.733.651-1.092.985a.983.983,0,0,1-1.467.092l6.234-6.485c-3.137-1.346-3.746-3.49-2.573-6.092-1.695-1.252-3.922-1.509-4.6-3.851,1.751-1.4,3.348-3.089,5.6-.689.263.275.939.238,1.417.221a12.715,12.715,0,0,1,4.681.685c1.77.618,3.74,1.378,5.487,1.129,1.814-.255,3.473-1.643,5.2-2.53.106-.054.275-.008.359-.077a7.645,7.645,0,0,1,3.786-2.148c1.461-.169,2.58-2.075,3.982-1.219,1.914,1.169,2.4-1.624,3.92-1.05.223.083.438.19.726.317-.918,1.509-3.419,1.638-3.358,3.949.685.6,1.885-.344,2.707.939h-4.32c-.188,1.983-1.816,2.507-2.934,3.51a1.817,1.817,0,0,1,0,2.569,23.405,23.405,0,0,1-2.749-.017c-3.172-.357-5.474.952-7.211,3.632a33.909,33.909,0,0,0,4.112,11.066c1.371-2.162,1.371-2.162,3.348-1.4-.259.668-.505,1.346-.789,2.006-.276.634-1.185.835-1.188,1.663,2.546,1.8,2.54,1.8,3.59,6.952a2.634,2.634,0,0,0,.518.945c.5.689,1.367,1.083,1.638,1.966-.146.845-1.319,1.538-.109,2.55,1.019.856.374,2.642,1.615,3.5-.455,2.515,1.29,4.335,2.05,6.464-.363,1.025-1.29.388-1.912.647.549,1.97.507,1.964.015,4.5a4.7,4.7,0,0,0-.04,2.567,33.322,33.322,0,0,0,3.49,6.729c2,2.682,5.163,4.066,7.194,6.716,1.261-1.793,2.755,1.135,3.991-.3,1.127-2.536-2.438-4.341-1.01-7.061,1.478,2.755,2.911,5.426,4.483,8.363.534-1.5,1.213-2.191,2.331-1.526a15.314,15.314,0,0,1,2.2,1.928,15,15,0,0,1,1.48-1.238c1.63-1.041,1.82-2.728,1.78-4.354a11.377,11.377,0,0,0-.956-3.068c-.079.054-.157.115-.422.3-.211.044.3.937-.559.779-.86-3.122-1.352-6.328-2.3-9.459-1.029-3.4-3.821-5.4-5.374-8.206a2.072,2.072,0,0,1,1.041-1.369,8.613,8.613,0,0,1,1.722,1.513c1.459,2.26,2.091,5.055,4.471,6.723.228.159.144.7.3,1.021,1.459,2.907,1.693,6.261,3.682,9.8v-6.23c1.615-.753,2.166.177,2.663,1.064.509-.411.908-.7,1.5-.536.576,1.152,1.173,2.34,1.774,3.531-.5,1.271-1.286,2.54-.184,3.988,3.734-2.394,6.055-5.785,8.023-9.273,1.071-1.9,2.358-4.07,1.905-6.562.445-.008.637-.292.707-.676.392-2.264.856-4.519,1.148-6.8a33.139,33.139,0,0,1,2.1-7.639c.993-2.569.4-5.708,2.669-7.814.119-.115-.073-.726-.273-.991-.47-.62-.253-1.073.1-1.655s.9-1.595.68-1.876c-1.081-1.371-.134-2.544.472-3.371.722-.985-.3-1.574-.048-2.248.336-.9.925-1.714,1.354-2.59a.755.755,0,0,0-.092-.682c-1.346-1.474-.086-2.361.616-3.525a25.755,25.755,0,0,0,2.853-5.892,7.757,7.757,0,0,0,.28-2.857,6.377,6.377,0,0,1,.923-4.984c1.238-1.595,1.1-3.682,2.329-5.2.2-.246.595-.43.28-.639-1.236-1.5-2.507-2.833-4.445-1.242-1.615-1.655-2.3.49-3.371.887-1.653.616-2.415,1.8-3.154,4.147-2.358.751-1,2.212-.561,3.465l-2.135,2.452c.376.776,1.231,1.069,1.317,2.041-.436.605-1.244,1.233-1.369,1.983-.724,4.316-1.745,8.636-1.484,13.036.1,1.661.71,3.312.641,5.049-.109,2.692-.419,5.387-.559,8.042-.278,5.166-1.386,10.291-.927,15.5.119,1.361,0,2.738-.01,4.109-1.311.044-.192,1.751-1.549,2.148a47.2,47.2,0,0,0-.756-10.421c-.225-1.417.73-3.206-1.325-4.089-.194-.083-.259-1.014-.058-1.369a3.045,3.045,0,0,0,.637-2.066c-.033-.192-.221-.353-.288-.451-.705.117-.885,1.1-2.01.92,1.259-3.471.816-6.91.161-10.394a7.055,7.055,0,0,1,.589-5.053.9.9,0,0,0-.29-1.208c-.315.14-.6.267-1.367.612,1.526-3.177.866-6.128.948-9.029.01-.482.175-1.219-.321-1.357-1.889-.53-.912-2.012-1.089-3.072-.23-1.348,1.121-2.49.637-3.911-.056-.167-.242-.292-.728-.856.689,2.392-.593,1.192-1.227,1.242-.388,5.936-.388,5.936-1.653,7.77-.19-1.885.86-3.387.743-5.153-.232-3.473-.006-6.975-.054-10.465a17.793,17.793,0,0,0-.284-4.42c-.3-1.153.808-2.678-1.018-3.4,1.217-1.775-.534-2.248-1.252-3.214a6.626,6.626,0,0,1-3.085,1.23c1.615-1.887,2.907-3.4,4.137-4.839a5.758,5.758,0,0,1-.035-.863c.407-2.88.712-5.688,4.068-7.018a6.416,6.416,0,0,0,3.164-3.067c1.089-2.413,3.279-2.816,5.272-3.445,3.081-.977,5.637-2.243,5.721-5.691,2.206-1.21,4.176-2.29,6.08-3.331,1.044,1.16-1.012,1.959.017,2.841.983.846-.455,1.667-.05,2.171,1.1,1.355-1.1,1.33-.787,2.268,1.411.871,2.711-.512,4.147-.479-.365,1.383-1.693,1.241-2.285,2.009-.434.559-1.384.7-.86,1.987.39.955-1.486.9-1.943,1.776,1.056.9-.269,1.956.138,2.825.806.726,2.02-.337,2.648.765-1.68.966-3.621,1.45-4.984,2.93,1.016.966,1.764-1.088,2.715-.114.674,1.864-1.586.762-1.83,1.722,1.471.79,2.611-.351,3.89-.515a3.271,3.271,0,0,1,1.044.245c-.374.907-1.259,1.205-2.143,1.67l1.29.6c-.53,1.77-2.575,1.812-3.427,3.05,1.041,2.635,2.905-.584,4.132.687.751,1.252-.889,1.035-1.1,1.873.856.353,1.979-.359,2.822.749-1.1.214-2.4,0-2.926,1.647,1.271-.4,2.381-.732,3.483-1.085,1.169-.373,2.154-1.9,3.629-.509.438-1.773,1.482-3.456,1.6-5.118.121-1.686,1.388-3.353.386-5.112,1.225-1.55,1.146-3.384,1.321-5.226.163-1.725,2.127-3.086,1.19-5.132a3.1,3.1,0,0,1-1.985-1.606,26.366,26.366,0,0,1,.576-5.4c.551-1.845-1.522-3.423-2.035-5.282-.253-.924.3-1.973-.351-2.824-.612-.245-1.306.109-1.772-.412.395-.843.783-1.681.927-1.993-.1-1.572-1.152-1.261-1.542-1.611a50.862,50.862,0,0,0,1.11-6.105c.121-1.845.839-3.623.213-5.624-.332-1.055.378-2.641,1.027-3.743.845-1.433-1.517-2.738.1-4.091.451-.378.323-1.141.092-1.692-.472-.326-.726.64-1.344-.047.835-1.08-.47-2.424.15-3.506a6.653,6.653,0,0,0,.551-3.84,5.475,5.475,0,0,1-2.991-2.741,29.283,29.283,0,0,1-2.129-5.393c-.582-1.845-1.154-3.643-2.891-4.444V84.269a2.849,2.849,0,0,1,1.436,2.251c.409,2.106.7,4.183,3.072,5.438,1.154.612,2.112,2.271,2.692,3.526a86.988,86.988,0,0,1,3.164,9.194c.048.136.282.206.472.337.152-.632.288-1.213.4-1.692,3.17.2,2.855,2.7,3.03,5.1.42-.762.649-1.18.883-1.6,1.1.91-.18,1.934.088,3.167,1.094-.762,2.321.367,3.239-.793-.82-2.282-1.716-4.539-1.423-7.063.159-1.358-.616-2.73-.023-4.107-1.411-1.35.035-2.7.04-4.06,0-.974-.618-1.589-.881-2.391-.33-1.021-2.054-1.48-1.814-2.541a1.992,1.992,0,0,0-.927-2.329,13.13,13.13,0,0,1-2.519-2.154,19.262,19.262,0,0,1-2.024-2.187c-.131-.167.136-.648.367-1.564a22.018,22.018,0,0,0,5.264,4.842c1.056-1.467-1.286-2.73-.167-4.216a7.88,7.88,0,0,1,2.085,2.8c1.112,2.2,1.336,4.65,2.463,6.829a53.571,53.571,0,0,0,5.775,8.513,12.008,12.008,0,0,0-.568-2.591c-1.676-3.217-3.243-6.5-4.823-9.762a30.99,30.99,0,0,0-2.148-4.514c-.983-1.389-.914-3.389-2.628-4.316-1.653-.9-1.572-3.033-2.749-4.127-1.574-1.467-1.494-3.929-3.435-5.081-.217-.131-.3-.687-.25-1.019.131-.957-.451-1.547-.854-2.312-1.127-2.143-3.222-3.684-3.7-6.245-.253-1.355-2.022-1.809-2.325-3.27-.046-.2-.6-.3-1.323-.64.39,1.066-.459,1.43-.572,2.162.4.473.81.944,1.223,1.425-.472.234-.9.442-1.323.651.922,1.18,1.2,2.666,2.158,3.826.908,1.1,1.482,2.474,2.342,3.62.662.877-.284,2.037.676,2.8.847.676,1.674,1.383,2.467,2.12.5.456.714,1-.121,1.606-1.517-.526-2.212-2.577-3.638-2.822a3.3,3.3,0,0,1-2.569-2.243c-.86-1.942-1.714-3.72-3.819-4.558a.819.819,0,0,1-.465-.559c-.008-2.435-2.029-3.4-3.45-4.8-.522-.512-.833-1.272-1.269-1.742-1.49-1.606-1.77-4.336-4.514-4.845-.6-.111-1.119-.9-1.378-1.661a4.921,4.921,0,0,0-2.473-2.663,17.1,17.1,0,0,1-3.1-2.477c-3.8-.125-3.8-.125-3.968,2.5,1.572,1.141,3.892,1.275,4.926,3.005,1.194,2.009,3.619,1.812,5,3.331.215.236.3.4.14.6-.144.189-.29.381-.495.654,1.336,1.177,3.026,1.814,4.016,3.615a18.622,18.622,0,0,0,3.865,4.194c.539.5-.48.838-.125,1.18a4.8,4.8,0,0,0,1.261.71c1.329.66.027,1.706.367,2.443.447.977,1.837,1.372,1.807,2.68-.01.593.165,1.25-.263,1.728-.58-.242-1.16-.431-1.691-.718s-.948-.849-1.77-.2c.7,3.273,4.587,4,6.117,7.591-2.841-2.118-5.61-3.167-6.8-6.1-.361-.9-.839-1.753-1.2-2.655-.292-.732-1.052-1.252-.858-2.209.257-1.247-1.327-.935-1.62-1.826-.835-2.532-3.318-3.161-5.343-4.016a8.145,8.145,0,0,1-2.943-2.018c-.292-.312-.167-1.077-.806-1.052-1.686.067-2.534-1.391-3.8-2.062-1.561-.826-2.7-2.318-3.98-3.562-1.156-1.133-3.325-1.277-4.686-2.627a8.922,8.922,0,0,0-4.172-2.274c-.353-.086-.854-.022-1.046-.239-1.81-2.02-4.016-1.1-6.138-.935,1.595.651,3.636-.125,5.059,1.906-2.087-.365-3.945-.671-5.79-1.016a46.494,46.494,0,0,0-7.893-1.224c-4.556-.072-9.129.326-13.666-.679-1.517-.337-3.081-.662-4.631-.918-4.1-.687-8.14-1.714-12.347-1.458-1.463-1.33-2.972-.175-4.016.392-4.873,2.641-9.692,5.376-14.57,8.012-1.878,1.016-4.005,1.892-5.491,3.615-.215.25-.294.4.086.749.179,2.365,1.885-1.344,2.388.415-7.19,5.6-12.255,7.372-17.642,8.087.376.863,1.208,1.113,1.97,1.45-.557,1.55-2.9,2.023-2.468,4.152-3.036,1.116-3.517,5.054-6.667,6.047-2.441,3.815-5.964,6.706-8.741,10.232a9.453,9.453,0,0,0-1.305,2.2,1.416,1.416,0,0,0,.941,2.068c-.348,3.211-2.944,5.2-4.177,8s-3.178,5.329-4.812,7.972c.345.212.957.362,1.119.718.587,1.294-.835,2.037-1.48,3.242,1.25-.095,1.817.412,1.417,1.03-.523.8-.949,1.717-.551,2.413,1.414,2.471.128,4.692-.465,6.94-.378,1.433-.7,2.315,1.366,3.106.317.122.4.289.106.721-.3.654-.715,1.53-1.071,2.3.217,1.03,1.461,1.169,1.478,2.226-.423.846-.863,1.717-1.316,2.624.25.715,1.831,1.116.646,2.3.81,1.252-.237,2.485-.036,3.726a5.507,5.507,0,0,0,.273.885c1.007.49,1.492-1.132,2.544-.3.364.576-.365,1.035-.373,1.553-.011.59,1.194.164,1.213,1.227-.273.573-.612,1.344-1,2.087a3.193,3.193,0,0,0-.209,2.827c.44,1.1.838,2.226,1.241,3.345.431,1.2-.765,2.24-.537,3.8,2.644-1.355,4.107-3.462,5.752-5.129,0-1.23.05-2.226-.011-3.22-.128-2.1,1.812-2.919,2.663-4.408,1.892,1.016,1.6-.57,1.915-1.547a14.539,14.539,0,0,0,.749-2.713c3.54-1.122,3.54-1.122,5.641-.387.075-1.539,1.464-1.692,2.488-2.193,3.665-1.8,7.385-3.49,11.1-5.2.17-.078.451.081.665.125.334.448-.612.685,0,1.341a12.268,12.268,0,0,1,3.3-.9c1.077-.173,2.678-.682,2.815-2.018.131-1.241.893-2.4.764-3.7-.664.245-1.106.437-1.567.554-.09.022-.253-.259-.382-.4a18.245,18.245,0,0,1,4.281-3.893c-1.112-2.836-1.112-2.836.576-4.33-.332-.145-.937-.281-.943-.434a13.478,13.478,0,0,0-.269-2.176c-.175-.874,1.288-1.041,1.148-2.1-1.607-1.575-4.583-.331-5.848-2.7a53.127,53.127,0,0,1-7.166-1.2,18.417,18.417,0,0,0-6.876-.565c.253.537.4.838.576,1.216-1.144.557-2.023-.047-2.791-.565-1.981-1.338-3.946-1.049-6.086-.423a53.738,53.738,0,0,1-5.955,1.066c.782-1.519,2.674-1.7,2.8-3.381-.364-.643-1.219-.916-1.305-1.759,1.508-.067,2.786-1.093,4.444-.79-.314-.651-.509-1.049-.7-1.45,2.8.106,5.666-.587,8.426.7,1.058-.49,2-1.522,3.445-1.28-.3,1.672-3.4.993-2.407,3.417-1.325.62-3.156-.557-4.561,1.344,3.3.445,6.206.189,9.581.284-1.058-.971-1.272-1.742-.871-2.627.729-.643,2.173.053,2.377-.487.7-1.867,2.129-1.347,3.373-1.313,1.193.036,1.94-.807,2.944-1.174-.445-.245-.858-.47-1.359-.748.524-.256.958-.467,1.386-.679-.87-1.742-3.158-.938-4.215-2.346,1.408-1.269,2.683,1.244,4.077.145-.9-1.628-3.418-.37-4.194-2.5a3.9,3.9,0,0,0,3.662.195c-.726-.729-2.12.161-2.168-1.575.713-.562,1.892-.4,2.792-.985a3.627,3.627,0,0,1,3-.442c1.413.7,2-.573,3.041-.679-.553-.579-1.517-.576-1.461-1.784.069-1.48-1.7-.47-2.279-1.336-.593-.888-1.444.6-2.037-.009-.175-.551.052-1.013.365-1.013,1.338,0,2.69-.4,4.011.3s2.617.743,3.83-1.032c-2.889-.626-5.1-3.242-8.413-1.592a1.577,1.577,0,0,1-1.9-.256c4.045-2.755,8.11-.033,12.422.27-1.221-1.67-3.467-.952-4.3-2.644.092-.072.175-.189.28-.217,1.459-.342,2.911,1.185,4.445-.081.461-.378,1.131.309,1.553.757,1.624,1.734,3.581-.334,5.278.484.2-1.3,1.985-1.289,2.135-2.6A11.347,11.347,0,0,1,168.17,81.2c.513-.966.966-1.828,1.49-2.816a1.942,1.942,0,0,1-.313,2.58c.576.6.973,1.4,1.92,1.631.582-1.82-.209-3.8.68-6.064.662,2.3-.409,4.575,1.622,5.986a20.886,20.886,0,0,0,1.678-8.526,14.256,14.256,0,0,1,1.046-6.161,10.924,10.924,0,0,1,1.532,3.935c.787-2.627,1.012-4.756-.257-6.89a1.786,1.786,0,0,1,.24-2.1c1.716,2.4,2.515,5.248,3.769,7.989.655-.643,1.169-.916,1.791-.362-.822.8-.582,1.834-.626,2.8-.2,4.046.495,8.143-.7,12.139-.094.3.088.69.134,1,2.985-4.13,2.63-9.2,3.924-13.817-.025,1.506,2.16.417,2.2,1.914.4-1.486,1.835-2.129,2.588-3.306,0-.907-.065-1.784.017-2.649.083-.913-.278-1.912.415-2.747.593.5.159,1.258.513,1.75.457.634.931,1.4.534,2.045-1.315,2.132-.488,3.974.474,5.886.7,1.389.378,2.914.311,4.38-.061,1.308-1.672,1.263-2.1,2.118,0,2.249-.628,4.647.171,6.389.877,1.909-.357,4.113,1.112,5.908a4.631,4.631,0,0,0,1.551-3.4c-.031-1.708-.175-3.431.687-5.062a.984.984,0,0,0-.666-1.461c-1.021-.273-.845-1.144-.637-1.809a9.014,9.014,0,0,1,1.052-1.825c.726.529.027,1.489.643,2.037.549-.412,1.1-.824,1.618-1.21.472.32.144,1.043.793,1.13.6-.225.852-1.116,1.764-1.052v1.258c-.808.109-.749.709-.724,1.283.023.523-.163.868-.718.943a.686.686,0,0,0-.72.66c-.035,1.458-.015,2.919-.015,5.042C197.671,89.434,198.036,88.749,198.4,88.065ZM96.083,129.228A4.36,4.36,0,0,0,91.5,131.8a25.063,25.063,0,0,1-3.017,4.94c-4.528,5.955-7.722,12.676-11.189,19.24-.17.323-.32.657-.481.982-2.19,4.422-2.449,4.575-7.441,4.288-2.018-2.023-4.572-3.687-5.4-6.748-1.558-.921-.426-2.905-1.572-3.993-.334-4.377-2-8.568-1.617-13.062a89.993,89.993,0,0,1,1.478-10.463q1.82-8.866,4.494-17.509c1.247-4.03,2.68-8.006,3.81-12.066,1.291-4.658,3.159-9.119,4.656-13.7A52.688,52.688,0,0,0,77.3,73.126,45.372,45.372,0,0,1,83.257,55c.754-1.269,2.151-2.037,2.63-3.54a1.579,1.579,0,0,1,1.169-.774c2.51-.214,4.444-1.837,6.648-2.755a12.69,12.69,0,0,1,5.321-1.077c2.741.058,5.5-.192,8.217.058,2.646.245,5.1-.64,7.639-.929a6.6,6.6,0,0,0,4.358-2.435c1.892-2.343,4.171-4.369,6.061-6.9a12.168,12.168,0,0,1,3.952-.242c1.258-.006,2.457-.389,3.782-.075,1.581.376,2.585.323,5.079-1.648,2.3-1.826,4.959-1.873,7.451-2.638,1.586-.487,3.4-.039,4.79-1.475.34-.348,1.438-.114,2.131.067a30.888,30.888,0,0,0,6.762,1.3c2.3.083,4.249,1.363,5.969,2.569,2.521,1.77,5.593,2.518,7.887,4.608,3.437.175,6.236,2.758,9.778,2.563,1.966-.106,3.757.893,5.792.787,1.91-.1,3.965-.6,5.819.6a1.614,1.614,0,0,0,1.411-.139c1.267-.829,2.657-.378,3.984-.534a16.581,16.581,0,0,0,4.337-.576c2.091-.8,4.3.534,6.466.826,1.156.156,2.352.429,3.569.493,1.945.106,3.917-.326,5.821.657a3.279,3.279,0,0,0,2.552-.03c2.974-1.417,6.347-1.55,9.288-3.072,2.9-1.494,5.856-1.472,8.413.687,1.526,1.283,3.529,1.714,4.928,3.178a2.707,2.707,0,0,0,1.993.757c2.889-.37,5.55,1.03,8.457.9,1.987,2.148,4.331,3.957,5.955,6.54a6.649,6.649,0,0,0,4.759,3.175c2.945.44,5.163,2.6,7.82,3.773.749,2.262,2.928,2.235,4.669,2.9.223.086.568.031.689.178,2.256,2.78,5.61,4.049,8.476,5.925,3.174,2.073,5.211,5.184,8.058,7.525,2.108,1.731,3.813,3.94,5.842,5.774a22.62,22.62,0,0,1,3.888,5.318c1.805,2.936,1.964,6.245,2.431,9.439a35.606,35.606,0,0,1,.033,8.206,56.414,56.414,0,0,1-1.555,9.322,10.36,10.36,0,0,0-.564,3.938c.165,1.338-1.014,2.257-.8,3.551.455,2.741-.43,5.415-.883,8.011-.908,5.2-.169,10.394-.745,15.531-.522,4.628-.058,9.347-1.319,13.9a6.839,6.839,0,0,0-.033,1.862c.077,6.239-1.96,11.9-4.792,17.322a3.706,3.706,0,0,0-.451,2.1c.159,2.148-.609,4-1.286,6.009-.975,2.891-2.285,5.6-3.469,8.373a6.247,6.247,0,0,1-10.577,1.724,11.967,11.967,0,0,1-2.287-3.644c-1.273-3.3-1.565-6.819-2.63-10.152-.409-1.294-.672-2.611-1.866-3.431-1.275,2.265-1.117,4.734-1.11,7.18.008,3.613-.167,7.238.046,10.838.342,5.71-.476,11.358-.97,17-.24,2.7.061,5.646-1.252,8.244.536,1.768.453,3.667.877,5.387a14.826,14.826,0,0,1,.524,4.327c-.09,1.54,1.039,2.78.787,4.3-.294,1.755.993,3.225.827,5.026a8.077,8.077,0,0,0,.634,5.053,2.308,2.308,0,0,1,.058,1.108c-.134,5.936.958,11.807.766,17.765-.173,5.385,1.544,10.513,3.024,15.636.134.459.645.881.62,1.3-.111,1.87.66,3.6.76,5.4a5.9,5.9,0,0,1-2.39,5.466c-3.609,2.456-6.453,5.8-10.079,8.288-2.129,1.457-4.189,3.233-6.232,4.888-3.358,2.73-6.547,5.679-10.072,8.231a60.778,60.778,0,0,1-14.418,7.516c-2.655,1.006-5.33,2.2-7.935,3.448-5.255,2.517-10.872,4.036-16.3,6.082-1.693.635-3.467,1.025-5.107,1.83-1.772.868-3.886.167-5.677,1.137-.4.221-1.031.006-1.44.217-3.237,1.651-6.7,1.843-10.256,2.256a77.349,77.349,0,0,0-12.051,2.415,47,47,0,0,1-10.723,1.976c-2.041.083-4.034.778-6.149.72a19.3,19.3,0,0,1-5.04-.793,194.379,194.379,0,0,1-28.707-11.17c-5.145-2.471-10.266-4.926-14.871-8.3a64.344,64.344,0,0,1-13.594-12.967,11.793,11.793,0,0,0-1.508-1.647c-6.264-5.664-10.881-12.646-15.57-19.56-1.842-2.715-3.556-5.52-5.282-8.315-.186-.3-.267-.62-.6-.843a8.094,8.094,0,0,1-3.312-5.351c-.629-2.736-1-5.479-1.5-8.217-1.227-6.806-.195-13.6-.771-21.059,1.809-1.613,3.776-3.538,5.919-5.245,3-2.392,4.678-5.919,7.5-8.472a3.748,3.748,0,0,0,.977-2.688,16.039,16.039,0,0,1,2.034-7.674,6.47,6.47,0,0,0,.985-3.467c-.1-1.749,2.04-2.822,1.544-4.74,1.912-3.938,2.694-8.242,4.068-12.356a8.8,8.8,0,0,0,.345-2.905c.006-3.114-.161-6.236-.022-9.344.448-10.051-.921-20.05-.779-30.091.022-1.711-.095-3.406.729-5.048a10.268,10.268,0,0,0,.807-5c-.111-3.86-.05-7.725-.025-11.587C95.181,133.532,95.023,131.459,96.083,129.228Z" transform="translate(64.843 31.217)" fill="#fff"/>
    <path id="Path_92" data-name="Path 92" d="M142.364,85.627a43.968,43.968,0,0,0-8.847,4.455c-3.581,2.137-7.219,4.258-10.713,6.576-1.19.788-1.72,1.645-2.2,3.882,2.734-1.909,5.234-3.832,7.914-5.46,1.828-1.11,3.993-1.664,5.852-2.736,1.9-1.094,4.341-.79,5.944-2.5,1.423.412,2.283-1.519,2.939-1.311,1.958.623,2.93-.84,4.366-1.481A8.255,8.255,0,0,1,142.364,85.627Zm-40.944,87.966c-1.684.858-3.409,1.542-4.544,3.3-.7,1.075-2.46,1.01-3.423,2.15-.729,1.507.262,3.335-.877,5.589-.123-3.567-1.425-6.263-1.586-9.093a104.242,104.242,0,0,1,.064-13.8,39.1,39.1,0,0,1,1.461-6.674c.7-2.661,1.478-5.318,2.073-8.012a1.916,1.916,0,0,0-.9-2.363c1.311-1.931,2.813-3.646,2.5-6.053a1.778,1.778,0,0,1,.381-.993c3.5-5.566,5.115-11.988,8.1-17.785a41.024,41.024,0,0,1,5.542-8.568c2.267-2.552,5.274-4.369,7.292-7.2a6.524,6.524,0,0,1,1.766-1.238V98.261c-.705,1.489-1.027,2.349-1.9,2.7a3.34,3.34,0,0,1,.236-3.139c.937-1.7,1.478-3.623,2.864-5.07a1.568,1.568,0,0,0,.307-1.386.872.872,0,0,0,.845-.9.668.668,0,0,1,.7-.615,6.043,6.043,0,0,0,4.059-2.224,25.887,25.887,0,0,1,6.115-4.411c.447.409.812.743,1.179,1.077.1.044.236.15.309.12,1.044-.465,1.954-1.753,3.229-.966,1.536.949,1.839-.785,2.776-1.024,1.2-.312,2.129-1.18,3.753-.34,1.755.916,3.961-.351,6.086-.312-.372,2.048-2.411.9-3.869,2.112,3.462-.39,6.161,1.113,9.112.634.008,1.152-.956,1.3-1.183,1.884.294.587.57,1.13.845,1.681.939.036,1.11-1.2,2.016-1.241l0,.008a3.057,3.057,0,0,1-.53,1.976c.935.776,1.722-.184,2.58-.217.144.331.284.657.48,1.113.927-.409,1.428-1.778,2.719-1.366l-.031-.025c-.129.331-.261.662-.461,1.169,2.855,1.238,4.948,3.9,8.113,4.834,2.214,2.791,6.257,2.377,8.618,4.914-.735.846-2-.234-2.763.81,1.1,2.5,1.77,5.271,4.18,7.071,1.273.952,1.421,2.557,1.739,3.918a45.135,45.135,0,0,0,2.043,7.3c.259.618.472,1.288.129,1.754-1.261,1.7-1.386,3.606-1.461,5.61a6.446,6.446,0,0,1-1.021,2.229H178.94c-.743-.53-.42-1.248-.643-1.8-.094-.353-.228-.14-.507-.1-1.595.232-2.306,1.467-3.235,2.527-1.175,1.332-1.423,1.279-3.556-.171,1.021-1.052,2.029-2.075,3.024-3.114,1.745-1.822,2.436-4.026,3.062-6.48.968-3.768-.246-7.116-1.826-10.021a23,23,0,0,0-6.387-7.733,18.111,18.111,0,0,0-11.16-3.776c-2.417.014-4.708-1.083-7.067-1.606a25.345,25.345,0,0,0-3.953-.573c-.743-.042-1.622.184-2.2-.139a4.453,4.453,0,0,0-3.508-.275c-2.613.6-5.3.949-7.317,2.942a11.988,11.988,0,0,1-4.742,3.3c-2.279.74-2.649,2.268-3.005,4.917a16.367,16.367,0,0,1-1.121,5.22,9,9,0,0,0,.215,8.771c.363.658,1.006,1.259.7,2.244-.15.495,2.287,4.2,2.78,4.37.407.14.574.816,1.217.455,1.741-.985,2.054.23,2.358,1.549.564,2.434.591,2.427,2.454,3.974a38.8,38.8,0,0,1-4.116,8.127c-1.012.209.071-1.91-1.49-.918-.651.409-1.127-.455-1.081-.9.038-.353.474-1.2,1.309-.612a3.83,3.83,0,0,0,.966.353c.7-.847.5-1.912,1.031-2.805a2.123,2.123,0,0,0-.476-2.717c-.6-.5-1.006-1.565-2.016-.568-.2-.432-.4-.864-.584-1.252-1.661,1.557-3.3,3.168-5.015,4.679-1.578,1.39-3.25,2.676-5.17,4.241a4.838,4.838,0,0,1,1.814-3.769,7.586,7.586,0,0,0,2.607-6.2c-.067-1.183.641-2.079.714-3.156a5.231,5.231,0,0,0-3.212.359c-.651-.666.351-.9-.248-1.6-1.67,1.194-3.4,2.431-5.13,3.673-1.064-1.478.5-2.315,1.227-3.625-1.949.935-1.949.935-2.953,2.212-2.156-1.448.109-2.31.607-3.677-1.734.182-2.21,1.352-2.98,2.436-1.74,2.448-3.735,4.717-5.611,7.04.262.1.587.221.913.342.518,1.695-2.566,2.319-1.116,4.489-2.574,1.9-2.568,5.207-3.977,7.847a32.8,32.8,0,0,0-2.827,8.131c1,.19,1.155-.862,1.842-1.021.868.82.069,1.313-.423,1.755a11.34,11.34,0,0,0-3.353,5.558c-.184.651-.362,1.123.122,1.67.543.614.181,1.094-.248,1.6-1.213,1.446-1.174,3.074-1.066,4.907a14.867,14.867,0,0,1-1.007,5.251,5.225,5.225,0,0,0-.189,2.874c1.024-.392.053-1.659,1.121-2.031,2.215-.772,3.67-2.663,5.529-3.915s4.216-1.885,5.894-3.435a24.719,24.719,0,0,1,4.653-2.916,2.006,2.006,0,0,1,2,.05,11.553,11.553,0,0,1-3.16,2.836c-2.218,1.131-4.736,1.906-6.194,4.228-.175.28-.952.117-1.383.309-.551.246-.351.864-.442,1.332Z" transform="translate(97.532 87.017)" fill="#fff"/>
    <path id="Path_93" data-name="Path 93" d="M81.536,54.634c.507-.893,1.141-1.775.212-2.713.673-1.06,1.82-1.233,2.7-1.809.306.022.609.047.913.07.128,1.11-.66,1.72-1.333,2.363a2.43,2.43,0,0,0-.985,2.146C82.488,56.117,82.057,54.219,81.536,54.634Z" transform="translate(87.468 52.654)" fill="#fff"/>
    <path id="Path_94" data-name="Path 94" d="M127.878,55.512h1.288c-.253,1.94-1.958,3.278-1.991,5.207l-.046.039c-1.578-.7-.4-2.026-.693-3.019.555-.075.741-.42.718-.943C127.129,56.222,127.07,55.621,127.878,55.512Z" transform="translate(136.113 58.524)" fill="#fff"/>
    <path id="Path_95" data-name="Path 95" d="M139.593,146.942c1.185-.046,2.388.232,3.479-.653.369-.3,1.171-.069,1.776-.077.188.083.513.136.538.255.1.417-.263.447-.561.5-.916.47-1.83.939-2.847,1.463C141.194,148.035,140.073,148.035,139.593,146.942Z" transform="translate(150.581 157.038)" fill="#fff"/>
    <path id="Path_96" data-name="Path 96" d="M130.361,82.519c-2.066.047-3.69-.582-4.289-2.894,1.584-.57,2.012,1.9,3.529,1.355C130.622,81.114,130.319,81.9,130.361,82.519Z" transform="translate(135.882 84.643)" fill="#fff"/>
    <path id="Path_97" data-name="Path 97" d="M74.389,152.62c1.681.524,1.681.524,3.623,2.611-.9,1.089-1.352-.44-2.081-.349C73.974,155.114,74.441,153.689,74.389,152.62Z" transform="translate(79.683 164.089)" fill="#fff"/>
    <path id="Path_98" data-name="Path 98" d="M80.163,157.826c-.356-.478-.693-.977-1.068-1.436-.587-.716-.607-1.288.334-1.686a4.955,4.955,0,0,1,2.059,1.87c.415.551.273,1.092-.5,1.277Z" transform="translate(84.366 166.354)" fill="#fff"/>
    <path id="Path_99" data-name="Path 99" d="M149.706,160.319c.86-2.463-.251-4.464-.787-6.633-.783-3.149-2-6.163-2.523-9.427-.382-2.411-2.133-4.585-3.172-6.912-.785-1.747-1.415-3.567-2.018-5.124.666-1.069,1.519-.785,2.093-.868.111-.447.294-.762.2-.9a7.344,7.344,0,0,1-1.413-5.376c-1.434-1.734-3.346-2.795-3.239-5.36.065-1.459-1.636-2.365-2.532-3.538.461-.989.956-1.939-.025-2.964-1.206-1.248-1.265-3.323-3.081-4.226a1.663,1.663,0,0,1-.522-2.212c2.127.72,4.483.693,6.449,2.44a16.855,16.855,0,0,0,4.711,2.719c3.437,1.436,5.71,4.224,8.348,6.62,1.121,1.019.912,2.519,1.851,3.59l-1.135.415c-.332.885,1.171,1.021.971,1.891-.223.063-.543.248-.653.163-.881-.666-1.724-1.382-2.886-2.335.326,2.073,1.935,3.308,2,5.191a3.042,3.042,0,0,1-1.941,1.2c2.2,2.171-.286,4.88,1.233,7.081-.87.376-1.2-.5-1.843-.365-.227.973.568,1.935-.15,2.962-.6.866,1.334,1.595.4,2.665-.307-.159-.611-.319-.918-.478-.067.228-.253.516-.177.676.889,1.847,1.847,3.673.73,5.771,1.636,2.8-.134,6.061,1.315,8.981C151.7,157.389,151.025,159.1,149.706,160.319Z" transform="translate(142.838 114.26)" fill="#fff"/>
    <path id="Path_100" data-name="Path 100" d="M96.329,85.671c-1.853-.264-2.992.66-3.737,2.246-1.094.927-.9,2.627-2.254,3.481-1.25.787-1.951,2.165-2.833,3.35-.456.609-1.391.863-2.123,1.288-.095-.3-.259-.537-.22-.737.2-1.149,1.595-1.088,2.04-1.909.351-.643-.657-1.305.028-2.273,1.286-1.823,1.583-4.227,3.52-5.749.69-.54.824-1.742,1.358-2.546.434-.657.423-1.639,1.6-1.823,1.636-.256.935-2.61,2.454-3.081,1.425-.442,2.307-1.7,3.217-2.632,1.088-1.124,2.26-2.16,3.426-3.17,1.289-1.11.668-3.236,2.616-3.971l-1.436-.7c1.191-1.055,2.813-1.636,2.919-3.729a2.76,2.76,0,0,1,2.048-2.34c1.728-.479,2.257-2.382,3.615-3.428,1.845-1.422,3.451-3.15,5.58-4.213.812-.406.171-.974.046-1.461,14.424-7.063,15.244-8.145,22.313-7.973-.49,1.965-3.1.047-3.456,2.232.843.6,2.135-.12,3.446.673-2.419.392-4.053,2.226-6.418,1.876-.259,2.566-2.857,2.936-3.867,4.809.013.428.826.782.426,1.461-2.553.623-3.206,1.06-6.737,4.5-2.459.487-3.646,2.916-5.894,3.8-1.565.618-2.892,1.809-4.425,2.53-1.405.657-2.307,2.593-4.313,1.792-.793,1.261-2.786,1.136-3.228,2.855a2.3,2.3,0,0,1-1.569,1.439c-.434.17-1.046.548-1.1.9-.342,2.366-2.607,3.392-3.5,5.209A4.278,4.278,0,0,1,98.127,80.7C96.293,81.778,96.78,83.946,96.329,85.671Z" transform="translate(91.403 46.314)" fill="#fff"/>
    <path id="Path_101" data-name="Path 101" d="M108.921,72.159c-3.047-1.494-4.1-1.606-5.649-1.055-3.106,1.1-3.8,3.793-4.405,6.576A8.363,8.363,0,0,0,101.591,80c3.559,2.391,7.121,1.422,8.081-1.817a23.77,23.77,0,0,1,.941-2.263c-2.875.209-4.644,2.026-6.693,3.039-1.45-.676-1.625-2.357-2.925-2.783C102.154,72.067,105.3,72.048,108.921,72.159ZM119,74.819c-1.766,1.942-4.435.493-5.881,2.368-.063.568-.29,1.311.334,1.65,1.411.768,1.68-.824,2.509-1.389.643.3,1.29.6,2.075.966-.146.827-1.008,1.544-.455,2.463-1.231.771-2.642-.159-3.573,1.177-1.789,2.571-4.546,3.069-7.485,2.933a5.142,5.142,0,0,0-.985.217c1.055.6,1.94,1.1,3.081,1.753-4.661.751-8.782-.409-12.929-1.283-.576-.12-1.091-.54-1.667-.682-2.671-.651-2.677-.632-2.5-3.581,1.856-.821,3.222.454,4.736,1.119.71-.9-.164-1.283-.581-1.82-.893-1.147-2.287-1.873-3.008-3.417,1.344-1.166,2.936-.253,4.33-.771a7.232,7.232,0,0,0,.2-3.247c-.353-.084-.732-.3-1.027-.22-1.277.356-2.53.8-3.779,1.2-1.11-1.625-2.944-2.894-3.323-5.385,1.828-.643,3.609-1.586,5.808-.941-.479.7-1.887.757-.971,2.143.66,1-1.319,1.289-1.058,2.446,1.909.245,2.8-2.134,4.7-1.9,2.635-2.357,6.189-1.795,9.236-2.855a3.61,3.61,0,0,1,2.816.5A39.348,39.348,0,0,1,119,74.819Z" transform="translate(95.669 71.717)" fill="#fff"/>
    <path id="Path_102" data-name="Path 102" d="M167.963,73.257a1.879,1.879,0,0,0-1.9-1.43,7.822,7.822,0,0,1-5.418-1.784c-1.294-1.094-2.934.016-4.331-.735-.092-.838,1-.3,1.094-.868-.44-1.046-1.622-1.06-2.348-1.731-1.127-1.044-2.68-1.661-2.767-3.573-.046-1.1-.812-1.6-1.958-1.826a6.8,6.8,0,0,1-3.452-1.987c-2.792-2.78-6.62-3.9-9.859-5.969a5.421,5.421,0,0,0-2.534-.248c-2.87-.081-3.11-.306-3.147-3.259a5.939,5.939,0,0,1,.175-1.063c1.1-.392,2-.537,2.229.918.142.275.378.323.576.042a3.1,3.1,0,0,1,3.291-1.18c1.129.15,2.563-.437,3.037,1.274,2.29.551,4.068,2.1,6.078,3.189,2.966,1.611,5.744,3.512,7.13,6.826a11.853,11.853,0,0,0,2.546,3.122c1.336,1.433,3.3,1.837,4.686,3.337a5.985,5.985,0,0,0,4.784,2.321,24.845,24.845,0,0,0-1.8-1.867c-2.882-2.382-4.519-5.874-7.407-8.245a1.345,1.345,0,0,1-.632-1.275c.342-1.389-.762-2.162-1.5-3.2.831-.164,1.411-.276,2.05-.4-.159-.212-.242-.418-.386-.49-2.181-1.069-4.416-2.045-6.543-3.217a7.571,7.571,0,0,1-2.751-2.232c-1.067-1.472-2.989-2.354-5.176-3.231a6.435,6.435,0,0,1,3.986-.314c2.755.76,5.8,1.016,7.714,3.654a4.991,4.991,0,0,0,1.883,1.784c2.154.857,2.613,2.407,2.217,4.394a4.473,4.473,0,0,0,2.049,1.567c2.947,1.519,3.4,2.226,4.959,6.3.728,1.9,2.342,3.161,3.723,4.567a1.1,1.1,0,0,1-.056,1.862c.595,1.731,3.222,2.176,2.732,4.605-.685.359-1.421.751-2.162,1.141A.76.76,0,0,0,167.963,73.257Z" transform="translate(141.612 45.984)" fill="#fff"/>
    <path id="Path_103" data-name="Path 103" d="M119.94,95.007h6.053c.459.518-.083.693-.121,1.077.624.982,1.816-.086,2.546.593.109.414-.2.615-.451.832-.96.854-2.133.365-3.208.481-1.809.2-2.315.91-1.855,2.691.668,2.563-.067,6.231-1.962,7.528-4.688,3.2-7.96,3.932-11.909-.282a1.843,1.843,0,0,1,.8-3.2,11.859,11.859,0,0,1,2.043-.648,9.868,9.868,0,0,0,4.12-1.311c1.223-.762,2.438-1.528,3.6-2.259.428-3.442-4.022-2.3-4.381-5.182a9.715,9.715,0,0,0,2.613-1.787C119.159,93.32,118.706,94.7,119.94,95.007Z" transform="translate(116.667 99.838)" fill="#fff"/>
    <path id="Path_104" data-name="Path 104" d="M105.325,125.14a13.066,13.066,0,0,1,4-4.314c1.661-1.112,1.837-3.717,4.222-3.976a11.924,11.924,0,0,1,3.369-4.114c-.317-.177-.722-.411-1.3-.737a10.523,10.523,0,0,0,5.095-3.6c1.242.81,1.273,1.643.63,2.306-.626.647-2.127.413-1.442,2.21.232.612-1.267,1.688-1.993,2.471-1.753,1.889-2.358,4.441-4.185,6.311-2.187,2.237-6.192,5.541-8.782,6.453-2.833,1-5.666,1.993-8.518,2.93a1.45,1.45,0,0,1-1.564-.311c.982-.549,1.923-1.077,2.747-1.54.354-1.327-1.608-.787-1.23-2.273,1-.278,2.093-1,3.381-.812.493.071.676.451.974-.321.6-1.563,1.711-1.97,3.222-.973A3.876,3.876,0,0,0,105.325,125.14Z" transform="translate(101.954 116.022)" fill="#fff"/>
    <path id="Path_105" data-name="Path 105" d="M124.546,97.574c-.49,3.273-.977,6.545-1.494,10,2.381.236,2.98,1.954,3.252,3.92.351-.144.66-.275.973-.4a3.908,3.908,0,0,1-.307,3.8c-.841.92-1.375.8-3.429-.793-.943.173-1.165,1.53-2.363,1.4-1-.111-1.421-.91-2.087-1.421-1.348-1.044-2.2-2.63-3.884-3.354-.484-.209-.645-1.162-1-1.853a27.941,27.941,0,0,1,5.623-3.375c.749-2.992,2.361-5.477,3.723-8.087Z" transform="translate(122.988 104.061)" fill="#fff"/>
    <path id="Path_106" data-name="Path 106" d="M96.4,122.4c-.515-2.346-.139-4.047,2.26-4.832a3.635,3.635,0,0,0,2.315-2.123c.484-1.069,1.631-1.839,2.521-2.78-.078-.8-1.122-1.814.287-2.419a9.472,9.472,0,0,0,5.149-4.393c.367-.737,1.246-.649,1.981-.332a11.539,11.539,0,0,1-.762,5.113c-.66,1.363-1.181,2.8-1.762,4.2.453.175.787.3,1.14.44-.052.192-.044.5-.167.563-3.648,1.928-6.806,4.683-10.655,6.284A2.813,2.813,0,0,1,96.4,122.4Z" transform="translate(103.411 112.631)" fill="#fff"/>
    <path id="Path_107" data-name="Path 107" d="M134.378,106.138c-.194,2.283-1.72,3.131-3.707,3.8-2.225.751-4.059-.15-5.911-.952a15.888,15.888,0,0,1-2.59-2,3.242,3.242,0,0,1-1.15-3.3c.689-2.958,1.25-6,4.333-7.672.685-.083,1.014.49,1.448.907-.426,1.249-.841,2.474-1.24,3.645C127.195,104.535,131.337,104.447,134.378,106.138Z" transform="translate(130.3 102.554)" fill="#fff"/>
    <path id="Path_108" data-name="Path 108" d="M110.45,47.22c-.756-2.343.307-3.545,1.966-4.447a27.263,27.263,0,0,1,6.739-2.538c3.6-.846,7.077-2.538,11.581-1.692a25.25,25.25,0,0,1-3.46,1.249,14.746,14.746,0,0,0-6.762,3.058,7.443,7.443,0,0,1-3.565,1.622A19.322,19.322,0,0,0,110.45,47.22Z" transform="translate(118.631 39.827)" fill="#fff"/>
    <path id="Path_109" data-name="Path 109" d="M159.245,72.814c.292,1.653,1.68,2.574.893,4.336-1.459-1.464-2.761-2.93-4.237-4.2-.96-.835.376-2.051-.672-2.741a14.22,14.22,0,0,1-2.392-1.653,6.854,6.854,0,0,1-2.106-3.785,3.4,3.4,0,0,1,3.4.331,22.837,22.837,0,0,1,4.957,3.662C160.932,70.66,160.94,70.652,159.245,72.814Z" transform="translate(162.69 68.243)" fill="#fff"/>
    <path id="Path_110" data-name="Path 110" d="M112.29,119.716c-.852,1.446-2.064,2.805-2.456,4.368-.449,1.793-2.235,2.331-2.8,3.855-.543,1.465-2.116,2.141-2.494,3.951-.259,1.25-1.688,2.621-3.776,4.024,1.377-4.038,1.874-7.432,4.7-9.928,1.816-1.607,2.9-3.93,4.821-5.514a2.47,2.47,0,0,1,1.943-.826Z" transform="translate(108.374 128.226)" fill="#fff"/>
    <path id="Path_111" data-name="Path 111" d="M134.817,40.346a6.074,6.074,0,0,1-3.849,1.75c-2.949.573-5.973.768-8.966,1.127-1.023.123-1.58-.493-2.1-1.275.209-1.266,1.06-1.53,2.254-1.853,2.191-.584,4,1.358,6.38.392C130.3,39.773,132.592,40.346,134.817,40.346Z" transform="translate(129.176 41.643)" fill="#fff"/>
    <path id="Path_112" data-name="Path 112" d="M127.485,123.72c.5,1.476,2.06,1.776,2.905,2.822,2.509,3.093,3.321,7,5.122,10.431a1.8,1.8,0,0,1-.367,2.141C132.857,133.847,128.65,129.57,127.485,123.72Z" transform="translate(137.418 132.672)" fill="#fff"/>
    <path id="Path_113" data-name="Path 113" d="M95.9,126.121c.651.015.829-.943,1.931-.668,2.012,2.855.84,6.247,1.124,10.137a12.068,12.068,0,0,1-3.044-9.48Z" transform="translate(103.036 134.502)" fill="#fff"/>
    <path id="Path_114" data-name="Path 114" d="M137.847,132.439c.092-2-.361-3.849.225-5.525.977-.278,1.618.221,1.7.733.5,3.164,2.216,6.136,1.705,9.753C139.588,135.914,139.924,133.247,137.847,132.439Z" transform="translate(148.595 136.058)" fill="#fff"/>
    <path id="Path_115" data-name="Path 115" d="M95.575,128.248a13.379,13.379,0,0,1,.582,9.7,12.974,12.974,0,0,1-2.432-7.161C93.744,129.607,93.867,128.542,95.575,128.248Z" transform="translate(100.717 137.594)" fill="#fff"/>
    <path id="Path_116" data-name="Path 116" d="M149.612,58.005a.76.76,0,0,1,.81.779,2.031,2.031,0,0,0,.868,1.917c2.024,1.639,3.168,4.024,4.94,5.883a.661.661,0,0,1-.161,1.049c-3.156-2.243-4.884-5.9-7.845-8.385C148.675,58.72,148.95,58.144,149.612,58.005Z" transform="translate(159.964 61.235)" fill="#fff"/>
    <path id="Path_117" data-name="Path 117" d="M130.661,121.052c2.287,3.187,3.45,6.9,5.969,10.01-2.02.424-1.734-1.171-2.34-1.837a26.776,26.776,0,0,0-1.968-2.578c-.874-.751-.674-1.807-1.119-2.55C130.619,123.12,129.807,122.4,130.661,121.052Z" transform="translate(140.469 129.772)" fill="#fff"/>
    <path id="Path_118" data-name="Path 118" d="M127.092,117.589c-2.889.463-2.444-1.983-3.133-3.366a4.765,4.765,0,0,1,2.116-1C127.161,114.413,127.977,115.684,127.092,117.589Z" transform="translate(133.585 121.257)" fill="#fff"/>
    <path id="Path_119" data-name="Path 119" d="M127.593,114.563c-1.96-.507-1.874-2.1-2.776-3.312,1.6-.835,2.834-.925,3.9.67C128.833,112.918,127.843,113.511,127.593,114.563Z" transform="translate(134.518 118.477)" fill="#fff"/>
    <path id="Path_120" data-name="Path 120" d="M146.092,58.6c2.294,1.01,5.009,1.316,6.777,4.027C149.876,61.977,147.985,60.257,146.092,58.6Z" transform="translate(157.646 61.883)" fill="#fff"/>
    <path id="Path_121" data-name="Path 121" d="M135.555,111.208c-1.943,1.421-2.922.092-3.974-.459-.369-.2-.369-1.085.123-1.743C133.629,108.413,134.242,110.027,135.555,111.208Z" transform="translate(141.585 116.539)" fill="#fff"/>
    <path id="Path_122" data-name="Path 122" d="M122.4,84.657c.269-1.386,1.578-.874,1.987-.646,1.432.8,3.005.479,4.458.726.564,1.508-.407,1.38-1.223,1.408l.031.025c-.234-1.116-1.142-.721-1.778-.707a4.9,4.9,0,0,1-3.471-.8Z" transform="translate(131.89 89.197)" fill="#fff"/>
    <path id="Path_123" data-name="Path 123" d="M111.411,110.58a1.594,1.594,0,0,1,1.991.167,1.889,1.889,0,0,1,.785,1.567c-.05.747-.434,1.119-1.148,1.077C111.672,113.318,111.344,112.726,111.411,110.58Z" transform="translate(119.936 118.096)" fill="#fff"/>
    <path id="Path_124" data-name="Path 124" d="M109.849,116.639c-.436-1-1.749-1.812-.259-2.795.674-.44,1.611-.49,1.924.223C112.027,115.249,111.468,116.174,109.849,116.639Z" transform="translate(117.212 121.585)" fill="#fff"/>
    <path id="Path_125" data-name="Path 125" d="M130.153,111.752c.39,1.221.516,2.133-.253,3.056-1.236-.263-1.941-.893-1.745-2.269C128.219,112.088,128.21,112.088,130.153,111.752Z" transform="translate(138.113 119.662)" fill="#fff"/>
    <path id="Path_126" data-name="Path 126" d="M123.5,111.421c.6-.01,1.24-.184,1.728.43.088,1.035-.835,1.638-1.11,2.5-.789.2-1.156-.311-1.615-.889A3.464,3.464,0,0,1,123.5,111.421Z" transform="translate(132.005 119.269)" fill="#fff"/>
    <path id="Path_127" data-name="Path 127" d="M120.072,75.747c-.728-2.655,1.666-3.5,2.578-5.087A9.088,9.088,0,0,1,120.072,75.747Z" transform="translate(129.212 74.992)" fill="#fff"/>
    <path id="Path_128" data-name="Path 128" d="M157.844,51.928c1.225.59,2.356.757,2.937,1.928-.248.262-.505.526-.968,1.013C159.046,54.085,157.969,53.634,157.844,51.928Z" transform="translate(170.421 54.628)" fill="#fff"/>
    <path id="Path_129" data-name="Path 129" d="M108.986,113.314c-.82-.564-.612-1.259-.386-1.954.687-.6,1.323-.232,2.029-.1C110.589,112.556,110.1,113.213,108.986,113.314Z" transform="translate(116.669 118.875)" fill="#fff"/>
    <path id="Path_130" data-name="Path 130" d="M89.695,71.126c-.317,1.43-.757,2.037-1.792,2.093a1.235,1.235,0,0,1-.287-2.015C88.173,70.525,88.871,71.081,89.695,71.126Z" transform="translate(93.649 75.218)" fill="#fff"/>
    <path id="Path_131" data-name="Path 131" d="M106.26,120.409A1.858,1.858,0,0,1,108,118.927c.989.447-.292.893.023,1.3.378.488.76.939.284,1.528-1.551.893-1-1.348-1.987-1.273Z" transform="translate(114.345 127.462)" fill="#fff"/>
    <path id="Path_132" data-name="Path 132" d="M133.758,163.719c-.522,1.968-2.062,2.64-3.838,3.02C130.6,164.965,132.276,164.468,133.758,163.719Z" transform="translate(140.066 176.155)" fill="#fff"/>
    <path id="Path_133" data-name="Path 133" d="M150.989,106.2c.559-2.477,2.127-3.078,3.79-3.59C153.717,103.748,153.46,105.618,150.989,106.2Z" transform="translate(162.969 109.729)" fill="#fff"/>
    <path id="Path_134" data-name="Path 134" d="M80.865,151.9c.749,1.92,3.011,2.582,3.748,4.51-.476-.008-.957.1-1.375-.286-1.33-1.227-2.68-2.436-4.494-4.08C79.938,151.962,80.4,151.928,80.865,151.9Z" transform="translate(84.433 163.305)" fill="#fff"/>
    <path id="Path_135" data-name="Path 135" d="M80.79,156.438c-1.063-.66-2.146-1.294-3.186-1.989a1.785,1.785,0,0,1-.7-1.885C78.505,153.543,80.551,154.083,80.79,156.438Z" transform="translate(82.393 164.028)" fill="#fff"/>
    <path id="Path_136" data-name="Path 136" d="M79.569,153.051a6.868,6.868,0,0,1-3.111-3.085c.195-.19.387-.38.579-.568C77.921,150.672,78.8,151.947,79.569,153.051Z" transform="translate(81.947 160.588)" fill="#fff"/>
    <path id="Path_137" data-name="Path 137" d="M420.351,332.981c-.2.309-.386.63-.6.935q-1.941,2.818-3.9,5.666l-.979,1.425-1.041,1.388q-.676.9-1.359,1.8a44.683,44.683,0,0,0,1.482-4.784c2.655-4.642,5.145-9.39,7.43-14.253-.142,1.01-.28,2.022-.4,2.989C420.785,329.909,420.576,331.536,420.351,332.981ZM68.538,342.4l-1.044-1.388-.982-1.425q-1.962-2.846-3.9-5.666c-.209-.3-.392-.626-.6-.935-.225-1.444-.431-3.072-.629-4.829-.134-1.069-.281-2.187-.44-3.314,2.268,4.861,4.756,9.6,7.4,14.238a43.25,43.25,0,0,0,1.55,5.124Q69.211,343.3,68.538,342.4ZM57.938,16.846h366.6s1.14,215.576,1.14,222.453a185.805,185.805,0,0,1-1.14,20.33v.879h-.113c-10.523,91.87-88.5,163.231-183.188,163.231S68.574,352.378,58.047,260.509h-.109v-.881A185.764,185.764,0,0,1,56.8,239.3C56.8,232.423,57.938,16.846,57.938,16.846Zm407.2,224.874c1.519-1.993,3.158-4.214,4.7-6.585a45.935,45.935,0,0,0,3.909-7.465,130.1,130.1,0,0,0,8.056-34.727c-1.38,1.03-5.22,5.182-9.018,11.407-.964,1.556-1.912,3.242-2.811,5.05-.451.906-.879,1.841-1.3,2.8-.228.5-.438,1.033-.662,1.551.025-.146.052-.307.077-.451.559-3.5.9-6.228,1.177-8.07.031-.225.056-.4.083-.593.2-.559.371-1.069.582-1.645,1.263-3.565,2.565-7.461,3.888-11.432,1.21-3.979,2.415-8.034,3.308-11.907a71.909,71.909,0,0,0,1.7-10.775,54.151,54.151,0,0,0-.624-10.416c-.58-3.59-1.39-7.155-2.212-10.3-1.774-6.3-3.569-10.92-3.569-10.92s-1.883,4.636-3.782,10.769c-1.014,3.067-2.037,6.506-2.836,9.957A55.281,55.281,0,0,0,464.152,168a80.3,80.3,0,0,0,.173,10.6c.246,3.86.593,7.956,1.027,12.041.321,4.071.753,8.131,1,11.871.031.571.06,1.119.092,1.675-.25,1.653-.641,4.213-1.158,7.644-.079.449-.169.943-.253,1.421-.033-.547-.052-1.106-.1-1.64-.121-1.039-.273-2.054-.442-3.039-.346-1.973-.781-3.83-1.261-5.549a39.507,39.507,0,0,0-5.982-12.789,274.434,274.434,0,0,0-2.383,33.744,56.084,56.084,0,0,0,.737,8.071c.386,2.682.918,5.318,1.428,7.743.445,2.187.833,4.153,1.1,5.85-1.144,4.4-2.459,9.052-3.936,13.908a46,46,0,0,0-2.7-18.333,22.12,22.12,0,0,0-2.143-4.552,311.89,311.89,0,0,0-6.626,32.963,49.1,49.1,0,0,0-.4,8.052c.038,2.713.121,5.368.275,7.839.069,1.236.136,2.417.2,3.515.035.718.029,1.329.033,1.964-.415.935-.841,1.872-1.25,2.82-.841,1.872-1.638,3.784-2.538,5.673-.71,1.461-1.426,2.943-2.143,4.423.192-1.044.457-2.121.582-3.122.125-.985.225-1.945.286-2.888.04-.95.056-1.876.048-2.765a46.725,46.725,0,0,0-.887-9.037,28.738,28.738,0,0,0-1.123-3.974q1.925-9.085,3.005-18.458h.121v-.945a201.289,201.289,0,0,0,1.229-21.929c0-7.413-1.229-239.917-1.229-239.917H43.546s-1.23,232.5-1.23,239.917a200.868,200.868,0,0,0,1.23,21.927v.948h.12q1.064,9.276,2.961,18.275a28.317,28.317,0,0,0-1.191,4.157,46.479,46.479,0,0,0-.885,9.037c-.008.889.006,1.816.047,2.765.061.943.161,1.9.284,2.888.131,1,.389,2.079.584,3.122-.718-1.48-1.436-2.964-2.143-4.423-.9-1.889-1.7-3.8-2.538-5.673-.409-.948-.835-1.885-1.25-2.82,0-.634,0-1.246.033-1.964.061-1.1.128-2.279.2-3.515.15-2.471.237-5.126.273-7.839a49,49,0,0,0-.4-8.052,313.087,313.087,0,0,0-6.626-32.963,21.984,21.984,0,0,0-2.143,4.552,45.842,45.842,0,0,0-2.7,18.333c-1.478-4.857-2.8-9.511-3.937-13.908.27-1.7.657-3.663,1.1-5.85.509-2.425,1.038-5.061,1.425-7.743a55.875,55.875,0,0,0,.74-8.071,274.555,274.555,0,0,0-2.385-33.744,39.482,39.482,0,0,0-5.98,12.789,56.254,56.254,0,0,0-1.261,5.549c-.173.985-.326,2-.442,3.039-.05.534-.07,1.094-.106,1.64-.083-.478-.17-.973-.253-1.421-.518-3.431-.907-5.991-1.155-7.644.028-.557.058-1.1.092-1.675.25-3.74.682-7.8,1-11.871.434-4.085.779-8.181,1.03-12.041a81.133,81.133,0,0,0,.172-10.6,55.061,55.061,0,0,0-1.656-10.023c-.8-3.451-1.82-6.89-2.833-9.957-1.9-6.133-3.785-10.769-3.785-10.769s-1.792,4.619-3.567,10.92c-.824,3.144-1.634,6.709-2.212,10.3a54.086,54.086,0,0,0-.623,10.416,71.818,71.818,0,0,0,1.7,10.775c.893,3.874,2.1,7.928,3.306,11.907,1.325,3.971,2.624,7.867,3.89,11.432.212.576.381,1.085.582,1.645.028.2.053.367.084.593.275,1.842.615,4.572,1.177,8.07.022.144.05.309.072.453-.217-.518-.426-1.05-.657-1.553-.42-.962-.852-1.9-1.3-2.8-.9-1.808-1.848-3.494-2.808-5.05-3.8-6.225-7.642-10.377-9.022-11.407A130.106,130.106,0,0,0,8.616,227.67a45.9,45.9,0,0,0,3.913,7.465c1.539,2.371,3.178,4.592,4.7,6.585,1.414,1.832,2.724,3.435,3.8,4.827,1.13,4.516,2.4,9.256,3.885,14.257a68.519,68.519,0,0,0-5.61-8.236,61.987,61.987,0,0,0-6.336-6.946,29.115,29.115,0,0,0-4-3.318c.534,2.734,1.314,5.581,2.148,8.49q.626,2.182,1.319,4.393c.484,1.463,1.018,2.924,1.556,4.383A108.927,108.927,0,0,0,21.453,275.9a51.467,51.467,0,0,0,4.953,6.877c1.825,2.146,3.835,4.091,5.629,5.846.907.866,1.77,1.693,2.574,2.463.548.511,1.021.952,1.511,1.4.679,1.576,1.361,3.154,2.054,4.756.434,1.01.871,2.022,1.314,3.045q.714,1.506,1.433,3.03c.376.789.76,1.6,1.138,2.4-.732-.864-1.447-1.787-2.2-2.578-.7-.737-1.408-1.442-2.1-2.118q-1.014-1.03-2.018-1.964a69.961,69.961,0,0,0-7.352-5.927,27.316,27.316,0,0,0-4.447-2.722q.739,1.975,1.564,4.03c.548,1.365,1.208,2.726,1.842,4.109,1.322,2.749,2.624,5.587,4.221,8.29,1.572,2.707,3.114,5.416,4.848,7.925s3.487,4.9,5.223,7.079a51.431,51.431,0,0,0,6.1,5.95q.814.679,1.628,1.325.856.62,1.686,1.223c1.119.793,2.215,1.542,3.267,2.244,1.556,1.062,3.039,2,4.333,2.836,2.524,3.84,5.148,7.672,7.912,11.462-2.29-1.768-4.594-3.3-6.7-4.683-6.261-3.869-11.521-6.057-13.2-6.424a113.268,113.268,0,0,0,10.558,14.868c2.065,2.379,4.13,4.748,6.292,6.91,2.2,2.135,4.4,4.141,6.542,5.952a57.1,57.1,0,0,0,14.6,8.031c1.711.676,3.217,1.277,4.608,1.822,2.34,2.377,4.645,4.781,7.1,7.061.918.843,1.9,1.618,2.838,2.446-2.471-1.175-4.878-2.181-7.132-3.041-6.951-2.479-12.52-3.607-14.27-3.613,7.625,8.426,18.6,17.3,28.7,22.334.621.326,1.249.649,1.9.935s1.33.534,2.007.783c1.35.493,2.722.929,4.085,1.321s2.719.741,4.041,1.05c1.333.292,2.66.5,3.907.718,1.492.248,2.847.461,4.116.668l.206.14c1.074.7,2.112,1.446,3.208,2.116l3.292,2,3.287,2c.532.324,1.066.622,1.6.935-.325-.077-.654-.159-.974-.238-1.97-.455-3.89-.8-5.724-1.052s-3.612-.4-5.176-.557-3.016-.223-4.291-.25a27.961,27.961,0,0,0-5.268.259c2.332,1.613,4.837,3.264,7.447,4.892,2.736,1.559,5.577,3.089,8.443,4.548,1.458.772,2.808,1.332,4.185,1.916s2.747,1.14,4.11,1.668l2.037.779,1.01.374.125.044.064.023.017.006.005,0,.209.109.033.008.267.088.532.167c1.419.438,2.813.847,4.171,1.219a44.91,44.91,0,0,0,8.415,1.421c2.858.157,5.643.136,8.162.075,1.252-.04,2.449-.075,3.562-.109.095-.008.167-.01.262-.017q6.257,2.476,12.478,4.577c-2.162-.027-4.235.025-6.183.134a68.761,68.761,0,0,0-9.411,1.2,27.214,27.214,0,0,0-5.079,1.254c10.385,4.61,23.935,8.263,35.01,8.991,6.821.509,14.118-1.033,19.527-2.131,3.968.939,7.818,1.828,11.613,2.7-7.68,1.772-14.764,3.529-21.3,5.433-.776.213-1.55.422-2.315.63q-1.135.363-2.249.722-2.233.7-4.394,1.388c-1.442.474-2.872.843-4.266,1.369l-4.132,1.511c-5.607,1.918-10.207,3.982-14.791,5.821-3.737,1.524,11.287,11.312,15.083,8.19,1.263-1.01,2.953-2.171,5.226-3.711,1.138-.756,2.4-1.6,3.832-2.484q2.229-1.233,4.912-2.642a124.713,124.713,0,0,1,12.886-5.781q3.816-1.352,8.152-2.784c2.905-.924,6.03-1.753,9.313-2.653q3.644-.949,7.5-1.87c2.565.618,5.07,1.238,7.5,1.87,3.285.9,6.412,1.728,9.317,2.653q4.339,1.428,8.148,2.784a124.749,124.749,0,0,1,12.89,5.781q2.686,1.406,4.909,2.642c1.438.883,2.7,1.728,3.834,2.484,2.271,1.54,3.963,2.7,5.226,3.711,3.792,3.122,18.819-6.666,15.079-8.19-4.583-1.839-9.179-3.9-14.789-5.821-1.357-.495-2.73-1-4.132-1.511s-2.822-.9-4.264-1.369q-2.163-.686-4.393-1.388l-2.25-.722c-.764-.209-1.538-.417-2.317-.63-6.537-1.9-13.62-3.661-21.3-5.433,3.792-.87,7.643-1.759,11.608-2.7,5.414,1.1,12.712,2.64,19.531,2.131,11.074-.728,24.621-4.381,35.009-8.991a27.282,27.282,0,0,0-5.078-1.254,68.763,68.763,0,0,0-9.411-1.2c-1.949-.109-4.022-.161-6.186-.134q6.217-2.1,12.481-4.577c.092.006.163.008.261.017,1.112.033,2.31.069,3.563.109,2.517.061,5.3.081,8.158-.075a44.926,44.926,0,0,0,8.417-1.421c1.359-.371,2.753-.781,4.17-1.219l.53-.167.271-.088.033-.008.2-.109.008,0,.017-.006.063-.023.127-.044,1.008-.374,2.039-.779c1.363-.528,2.736-1.087,4.107-1.668s2.73-1.144,4.189-1.916c2.866-1.459,5.706-2.989,8.44-4.548,2.609-1.628,5.118-3.279,7.449-4.892a27.957,27.957,0,0,0-5.268-.259c-1.275.027-2.722.1-4.293.25s-3.354.29-5.176.557-3.753.6-5.723,1.052c-.321.079-.651.161-.977.238.532-.313,1.069-.612,1.6-.935l3.287-2,3.291-2c1.094-.67,2.135-1.413,3.208-2.116.067-.046.138-.092.2-.14,1.271-.207,2.624-.42,4.118-.668,1.246-.215,2.571-.426,3.907-.718,1.321-.309,2.678-.657,4.041-1.05s2.732-.829,4.084-1.321c.676-.248,1.344-.507,2.008-.783.647-.286,1.277-.609,1.9-.935,10.1-5.03,21.073-13.908,28.7-22.334-1.751.006-7.319,1.133-14.269,3.613-2.258.86-4.665,1.866-7.134,3.041.933-.829,1.92-1.6,2.838-2.446,2.454-2.279,4.759-4.683,7.1-7.061,1.39-.545,2.9-1.146,4.608-1.822a57.137,57.137,0,0,0,14.595-8.031c2.139-1.812,4.335-3.817,6.539-5.952,2.166-2.162,4.228-4.531,6.295-6.91a113.272,113.272,0,0,0,10.559-14.868c-1.684.367-6.946,2.555-13.207,6.424-2.1,1.38-4.4,2.916-6.693,4.686,2.761-3.792,5.385-7.624,7.912-11.464,1.292-.833,2.778-1.774,4.333-2.836,1.05-.7,2.148-1.451,3.266-2.244q.833-.6,1.684-1.223.817-.645,1.628-1.325a51.246,51.246,0,0,0,6.1-5.95c1.736-2.183,3.49-4.571,5.224-7.079s3.273-5.218,4.848-7.925c1.595-2.7,2.9-5.541,4.22-8.29.634-1.384,1.294-2.745,1.843-4.109s1.071-2.713,1.563-4.03a27.211,27.211,0,0,0-4.45,2.722,69.965,69.965,0,0,0-7.349,5.927c-.668.624-1.344,1.277-2.018,1.964-.7.676-1.407,1.382-2.106,2.118-.749.791-1.461,1.713-2.2,2.578.382-.8.766-1.607,1.142-2.4q.717-1.525,1.43-3.03c.442-1.023.883-2.035,1.317-3.045.693-1.6,1.371-3.181,2.05-4.756.49-.453.964-.893,1.511-1.4l2.575-2.463c1.795-1.755,3.8-3.7,5.631-5.846a51.47,51.47,0,0,0,4.955-6.877,109.477,109.477,0,0,0,7.466-16.329c.536-1.459,1.069-2.92,1.555-4.383q.689-2.207,1.317-4.393c.835-2.909,1.617-5.756,2.152-8.49a28.9,28.9,0,0,0-4.005,3.318,61.722,61.722,0,0,0-6.334,6.946,68.524,68.524,0,0,0-5.612,8.232c1.484-5,2.757-9.736,3.888-14.253C462.414,245.156,463.72,243.553,465.137,241.721Z" transform="translate(-0.56 -0.873)" fill="#fff"/>
    <path id="Path_138" data-name="Path 138" d="M171.909,77.661c-.127,1.75-.253,3.5-.4,5.563-2.183-2.944-2.279-3.954-.789-6.142.4.2.812.409,1.221.612Z" transform="translate(183.33 81.973)" fill="#fff"/>
    <path id="Path_139" data-name="Path 139" d="M173.024,78.1c.086,2.065-.129,4.1.589,6.175.49,1.422.092,3.15.092,4.689-1.653.732-3.018.061-2.876-1.236.355-3.217.111-6.553,1.382-9.642C172.483,78.089,172.753,78.1,173.024,78.1Z" transform="translate(184.525 83.065)" fill="#fff"/>
  </g>
</svg>
